<?xml version="1.0" standalone="no"?>
<!DOCTYPE svg PUBLIC "-//W3C//DTD SVG 20010904//EN"
 "http://www.w3.org/TR/2001/REC-SVG-20010904/DTD/svg10.dtd">
<svg version="1.0" xmlns="http://www.w3.org/2000/svg"
 width="751.000000pt" height="501.000000pt" viewBox="0 0 751.000000 501.000000"
 preserveAspectRatio="xMidYMid meet">

<g transform="translate(0.000000,501.000000) scale(0.100000,-0.100000)"
fill="#000000" stroke="none">
<path d="M10 4950 l0 -50 48 -1 c26 0 85 -6 132 -13 79 -13 86 -12 100 5 8 10
46 39 85 64 l69 45 -217 0 -217 0 0 -50z"/>
<path d="M417 4968 c-31 -17 -74 -45 -94 -63 l-38 -32 35 -8 c19 -5 42 -9 50
-10 9 0 20 -4 25 -7 6 -3 25 -9 43 -13 18 -4 32 -9 29 -11 -4 -4 -113 18 -161
33 -16 4 -18 1 -13 -23 l6 -29 -11 26 c-8 20 -21 29 -47 33 -62 12 -144 20
-191 21 l-45 0 0 -131 c0 -72 2 -160 5 -195 l5 -64 50 2 c28 1 41 -1 30 -3
-48 -12 -49 -15 -15 -35 19 -12 59 -41 89 -65 31 -24 69 -53 85 -65 20 -16 45
-23 85 -25 31 -2 86 -6 124 -9 37 -3 67 -2 67 2 0 5 -37 19 -82 31 -46 13
-101 31 -123 42 l-40 18 105 3 c58 1 134 4 170 5 140 6 284 -36 420 -124 65
-42 205 -181 274 -272 63 -83 98 -119 114 -120 6 0 12 -6 12 -13 0 -39 144
-126 222 -134 48 -5 55 -2 77 20 29 31 42 131 29 216 -21 138 -137 404 -208
480 -37 40 -53 40 -33 0 14 -29 14 -34 0 -59 -9 -15 -14 -30 -10 -34 3 -3 1
-6 -7 -6 -10 0 -10 -3 -1 -14 10 -11 8 -16 -7 -20 -14 -5 -18 -13 -14 -31 3
-18 0 -25 -11 -25 -17 0 -32 31 -19 39 5 3 -2 16 -15 29 -12 12 -23 19 -23 14
0 -5 3 -12 7 -16 4 -3 8 -16 10 -28 3 -18 1 -19 -14 -7 -28 22 -42 42 -43 61
0 9 -4 19 -9 22 -5 4 -7 -4 -3 -16 4 -19 3 -21 -9 -11 -8 6 -18 12 -24 12 -5
0 -11 12 -13 26 -2 14 -10 25 -17 25 -31 0 -23 -23 27 -77 29 -32 5 -13 -52
42 -58 55 -107 102 -110 104 -3 2 1 1 8 -3 16 -10 15 -1 -2 13 -12 10 -14 7
-11 -16 2 -15 6 -53 9 -83 3 -30 4 -50 2 -45 -7 18 -31 160 -28 169 2 5 -4 6
-12 3 -17 -7 -59 26 -48 38 4 5 1 5 -5 1 -7 -4 -27 4 -46 18 -19 15 -37 26
-41 26 -4 0 -22 11 -39 24 -29 21 -150 86 -161 86 -3 0 2 -23 10 -51 9 -28 13
-53 11 -55 -2 -3 -12 23 -21 56 -19 69 -29 76 -173 125 -46 16 -83 32 -83 36
0 5 18 2 40 -6 22 -8 40 -12 40 -9 0 3 7 -2 17 -11 9 -10 26 -15 40 -12 12 2
23 1 23 -3 0 -4 11 -12 24 -18 20 -9 27 -7 42 9 9 10 21 19 27 19 5 0 -1 -10
-14 -21 l-24 -21 25 15 c14 8 26 24 28 37 3 18 0 21 -17 15 -14 -4 -21 -2 -21
6 0 7 3 10 6 6 13 -13 32 18 22 36 -8 16 -7 17 10 8 11 -6 23 -7 28 -3 5 4 3
0 -3 -8 -19 -21 -16 -29 10 -23 20 5 20 4 6 -8 -26 -22 -29 -45 -7 -46 17 -2
18 0 6 14 -11 15 -11 15 5 6 14 -7 36 -6 75 4 74 18 105 23 176 28 32 2 64 9
69 14 11 11 9 12 -15 15 -7 0 -14 7 -14 14 -3 24 -4 24 -21 11 -14 -12 -16
-12 -11 2 5 12 1 15 -18 11 -13 -2 -24 -8 -24 -14 0 -5 -6 -3 -13 4 -7 6 -13
21 -12 32 3 35 -5 46 -31 40 -15 -4 -24 -2 -24 5 0 8 -6 8 -20 -1 -14 -9 -16
-14 -7 -20 9 -6 9 -8 -2 -8 -9 0 -11 -7 -8 -21 5 -17 3 -18 -9 -8 -8 6 -17 9
-20 6 -3 -3 -17 1 -32 9 -15 8 -30 10 -37 4 -6 -5 -18 -3 -29 6 -18 13 -17 14
21 14 33 0 42 4 46 20 4 17 2 20 -15 14 -14 -4 -18 -2 -14 5 4 6 2 11 -4 11
-6 0 -10 -8 -8 -17 2 -11 -5 -19 -17 -21 -16 -4 -17 -2 -7 10 13 17 6 28 -17
27 -12 0 -11 -3 4 -9 16 -7 17 -9 3 -9 -9 -1 -19 3 -22 8 -4 5 -63 10 -134 10
-124 1 -128 0 -185 -31z m298 12 c-3 -5 -12 -10 -18 -10 -7 0 -6 4 3 10 19 12
23 12 15 0z m-38 -25 c0 -8 -4 -15 -8 -15 -11 0 -20 16 -12 24 11 11 20 7 20
-9z m-16 -58 c-10 -9 -11 -8 -5 6 3 10 9 15 12 12 3 -3 0 -11 -7 -18z m47 -1
c-23 -17 -23 -26 -1 -26 12 0 14 -3 6 -11 -6 -6 -16 -8 -22 -5 -15 10 -14 43
2 49 24 10 32 6 15 -7z m136 -13 c3 -8 1 -11 -4 -8 -6 3 -15 3 -21 -1 -8 -4
-7 -9 2 -15 7 -4 10 -12 5 -16 -4 -4 -18 4 -30 18 -12 14 -28 23 -36 21 -9 -3
-8 1 4 10 22 17 72 12 80 -9z m48 -4 c5 -14 60 -19 75 -7 9 7 17 5 28 -5 11
-12 12 -18 3 -23 -6 -4 -14 -2 -16 4 -2 7 -8 12 -14 12 -6 0 -7 -7 -4 -16 5
-13 4 -14 -7 -6 -8 7 -17 9 -20 6 -3 -3 -12 -2 -19 2 -20 13 -39 14 -32 2 4
-6 0 -14 -7 -19 -24 -15 -28 -10 -14 18 8 15 12 30 9 35 -3 4 -1 8 5 8 5 0 11
-5 13 -11z m156 -23 c-13 -14 -28 -12 -28 5 0 5 9 9 20 9 17 0 19 -2 8 -14z
m-423 -16 c3 -5 1 -10 -4 -10 -6 0 -11 5 -11 10 0 6 2 10 4 10 3 0 8 -4 11
-10z m62 -15 c-4 -8 -2 -17 4 -20 5 -4 7 -10 4 -15 -6 -9 -43 -2 -50 10 -3 5
4 6 15 3 12 -3 20 -2 19 3 -3 16 1 34 7 34 3 0 4 -7 1 -15z m-368 -70 c0 -5
-4 -3 -9 5 -5 8 -9 22 -9 30 0 16 17 -16 18 -35z m20 -70 l0 -20 -9 20 c-5 11
-9 27 -9 35 -1 13 0 13 9 0 5 -8 9 -24 9 -35z m368 -7 c-3 -8 -6 -5 -6 6 -1
11 2 17 5 13 3 -3 4 -12 1 -19z m-360 -50 c-3 -7 -5 -2 -5 12 0 14 2 19 5 13
2 -7 2 -19 0 -25z m383 -28 c4 -22 3 -40 -1 -40 -5 0 -9 6 -9 14 0 7 -3 29 -6
47 -4 19 -3 31 1 27 4 -4 11 -25 15 -48z m-373 -32 c-3 -7 -5 -2 -5 12 0 14 2
19 5 13 2 -7 2 -19 0 -25z m410 -20 c-3 -8 -6 -5 -6 6 -1 11 2 17 5 13 3 -3 4
-12 1 -19z m-23 -45 c4 -27 2 -43 -4 -43 -5 0 -10 21 -10 47 0 55 5 54 14 -4z
m-377 -15 c-2 -13 -4 -5 -4 17 -1 22 1 32 4 23 2 -10 2 -28 0 -40z m410 -15
c-3 -10 -5 -4 -5 12 0 17 2 24 5 18 2 -7 2 -21 0 -30z m723 -133 c0 -5 -2 -10
-4 -10 -3 0 -8 5 -11 10 -3 6 -1 10 4 10 6 0 11 -4 11 -10z m-368 -72 c3 -26
2 -45 -3 -42 -5 3 -9 26 -9 51 0 58 6 53 12 -9z m341 21 c5 -3 2 -9 -5 -12 -9
-3 -14 3 -15 15 -1 11 1 16 5 12 4 -5 11 -12 15 -15z m-62 -54 c11 -4 26 -2
33 4 9 8 26 2 63 -22 28 -17 59 -37 70 -43 16 -10 14 -11 -14 -10 -17 0 -29 3
-27 5 7 7 -76 43 -89 38 -7 -2 -18 2 -25 10 -7 7 -27 13 -43 13 -16 0 -29 4
-29 9 0 10 22 8 61 -4z m3 -67 c-3 -4 -11 -8 -17 -7 -9 0 -9 2 0 6 9 3 9 11
-3 31 l-16 27 20 -25 c11 -13 18 -28 16 -32z m-41 -33 c4 -34 3 -42 -3 -25 -8
25 -13 87 -6 79 2 -2 6 -26 9 -54z m252 15 c3 -5 2 -10 -4 -10 -5 0 -13 5 -16
10 -3 6 -2 10 4 10 5 0 13 -4 16 -10z m-174 -27 c13 -16 12 -17 -3 -4 -10 7
-18 15 -18 17 0 8 8 3 21 -13z m-74 -145 c-2 -18 -4 -4 -4 32 0 36 2 50 4 33
2 -18 2 -48 0 -65z m238 33 c3 -5 2 -12 -3 -15 -5 -3 -9 1 -9 9 0 17 3 19 12
6z m-188 -98 c-2 -16 -4 -5 -4 22 0 28 2 40 4 28 2 -13 2 -35 0 -50z m-50 -10
c-3 -10 -5 -4 -5 12 0 17 2 24 5 18 2 -7 2 -21 0 -30z"/>
<path d="M1458 4223 c7 -3 16 -2 19 1 4 3 -2 6 -13 5 -11 0 -14 -3 -6 -6z"/>
<path d="M885 4990 c3 -5 11 -10 16 -10 6 0 7 5 4 10 -3 6 -11 10 -16 10 -6 0
-7 -4 -4 -10z"/>
<path d="M1335 4970 c28 -16 55 -30 60 -30 6 0 -13 14 -42 30 -29 17 -56 30
-60 30 -4 0 15 -14 42 -30z"/>
<path d="M1607 4993 c-3 -5 -9 -41 -13 -82 -5 -57 -4 -75 7 -82 12 -8 12 -11
-1 -20 -12 -8 -11 -9 5 -5 11 2 43 6 70 8 48 3 50 2 53 -26 3 -28 5 -28 54
-24 30 3 60 14 76 27 15 12 64 45 108 75 70 47 134 108 134 129 0 4 -34 7 -75
7 -43 0 -75 -4 -75 -10 0 -5 -7 -10 -15 -10 -8 0 -15 5 -15 10 0 16 -76 12
-90 -5 -17 -20 -31 -19 -24 3 3 9 -2 6 -10 -8 -8 -14 -15 -19 -16 -12 0 7 -5
10 -10 7 -6 -4 -9 -1 -8 7 2 10 -17 14 -74 16 -42 2 -78 0 -81 -5z m273 -28
c0 -8 -9 -15 -20 -15 -17 0 -19 2 -8 15 17 19 28 19 28 0z m-190 -50 c0 -28
-25 -52 -36 -34 -4 7 0 17 9 24 14 10 14 14 1 40 -15 29 -15 29 6 10 11 -10
20 -28 20 -40z m25 -4 c3 -5 1 -12 -5 -16 -5 -3 -10 1 -10 9 0 18 6 21 15 7z
m89 -12 c-3 -5 -11 -9 -19 -9 -8 0 -16 4 -19 9 -3 5 5 9 19 9 14 0 22 -4 19
-9z m-84 -23 c0 -3 -4 -8 -10 -11 -5 -3 -10 -1 -10 4 0 6 5 11 10 11 6 0 10
-2 10 -4z m-13 -32 c-3 -3 -12 -4 -19 -1 -8 3 -5 6 6 6 11 1 17 -2 13 -5z"/>
<path d="M3188 4993 c7 -3 16 -2 19 1 4 3 -2 6 -13 5 -11 0 -14 -3 -6 -6z"/>
<path d="M3260 4989 c0 -5 5 -7 10 -4 6 3 10 8 10 11 0 2 -4 4 -10 4 -5 0 -10
-5 -10 -11z"/>
<path d="M3410 4980 c20 -13 63 -13 55 0 -3 6 -21 10 -38 10 -24 0 -28 -3 -17
-10z"/>
<path d="M1440 4911 c19 -17 39 -31 44 -31 5 0 7 1 5 3 -2 2 -22 15 -44 31
l-40 27 35 -30z"/>
<path d="M3100 4893 c0 -5 -15 -8 -33 -9 -54 -1 -128 -62 -153 -126 -4 -13 -1
-18 10 -18 9 0 16 4 16 8 0 16 39 10 45 -8 3 -10 16 -21 28 -25 19 -6 19 -8 5
-12 -10 -2 -18 -9 -18 -14 0 -5 -11 -9 -24 -9 -17 0 -26 7 -30 25 -6 24 -26
36 -26 15 0 -5 5 -10 10 -10 6 0 10 -4 10 -10 0 -17 -28 -11 -33 8 -3 14 -6
13 -14 -7 -8 -21 -4 -30 36 -72 25 -26 49 -45 55 -42 5 4 1 11 -10 15 -23 11
-48 64 -30 65 6 0 32 4 59 8 43 7 47 6 47 -13 0 -12 -4 -24 -10 -27 -5 -3 -10
-11 -10 -16 0 -6 4 -8 9 -5 5 3 12 -1 15 -10 9 -24 8 -27 -12 -22 -24 7 -47
-18 -26 -26 9 -3 21 -3 26 1 6 3 8 1 5 -4 -4 -6 7 -13 24 -17 81 -16 155 1
206 48 28 25 36 40 37 70 0 23 -4 41 -11 43 -8 3 -13 -3 -13 -14 0 -20 -56
-57 -65 -42 -4 5 -3 13 0 19 3 5 -6 12 -20 16 -14 3 -25 12 -25 19 0 7 -5 15
-11 17 -9 3 -9 9 -1 25 14 25 43 38 52 23 4 -7 13 -2 23 14 16 24 16 26 -9 56
-15 17 -38 37 -53 44 -35 18 -81 28 -81 19z m5 -141 c-3 -3 -11 0 -18 7 -9 10
-8 11 6 5 10 -3 15 -9 12 -12z m50 9 c3 -5 1 -12 -5 -16 -5 -3 -10 1 -10 9 0
18 6 21 15 7z m-25 -50 c0 -5 -7 -14 -15 -21 -8 -7 -15 -10 -15 -7 0 3 -2 12
-5 19 -4 9 2 14 15 15 11 1 20 -2 20 -6z m160 -91 c0 -16 -17 -20 -28 -7 -8
10 -6 13 9 14 10 1 19 -2 19 -7z"/>
<path d="M1433 4765 c0 -80 1 -90 7 -50 4 28 4 73 0 100 -6 40 -7 30 -7 -50z"/>
<path d="M2080 4842 c0 -5 6 -16 13 -26 17 -24 57 -13 57 15 0 15 -7 19 -35
19 -19 0 -35 -4 -35 -8z m35 -20 c-3 -3 -11 0 -18 7 -9 10 -8 11 6 5 10 -3 15
-9 12 -12z"/>
<path d="M2040 4825 c0 -9 6 -12 15 -9 8 4 15 10 15 15 0 5 -7 9 -15 9 -8 0
-15 -7 -15 -15z"/>
<path d="M1050 4815 c0 -26 57 -103 73 -97 4 1 10 -5 13 -13 4 -8 14 -15 23
-15 12 0 13 2 3 9 -12 7 -11 14 2 40 9 17 21 29 26 26 15 -9 12 24 -3 39 -14
15 -80 19 -72 5 4 -5 0 -9 -7 -10 -7 -1 -2 -5 12 -10 l25 -8 -25 2 c-18 1 -24
7 -22 20 2 12 -4 17 -23 17 -14 0 -25 -2 -25 -5z m120 -15 c0 -5 -5 -10 -11
-10 -5 0 -7 5 -4 10 3 6 8 10 11 10 2 0 4 -4 4 -10z m-46 -65 c-4 -8 -8 -15
-10 -15 -2 0 -4 7 -4 15 0 8 4 15 10 15 5 0 7 -7 4 -15z"/>
<path d="M864 4786 c-23 -6 -49 -18 -59 -26 -11 -8 -16 -10 -12 -3 6 9 1 10
-23 2 -16 -6 -30 -14 -30 -19 0 -14 29 -32 41 -24 8 4 9 3 5 -4 -4 -7 -2 -12
5 -12 7 0 21 -8 31 -17 17 -15 21 -15 30 -3 8 13 9 12 5 -1 -4 -11 3 -20 19
-28 19 -8 24 -8 24 4 0 9 6 12 15 8 9 -3 15 -2 14 3 -4 22 2 45 10 39 5 -3 12
-1 15 4 11 18 -27 4 -40 -14 -11 -14 -14 -15 -15 -4 0 8 -4 6 -9 -6 -7 -15 -9
-9 -9 25 -1 33 2 41 9 30 5 -8 10 -10 10 -5 0 6 5 3 10 -5 6 -9 10 -11 10 -3
0 7 7 10 17 6 12 -5 11 -1 -5 15 -25 25 -28 38 -9 45 22 10 -16 5 -59 -7z"/>
<path d="M968 4794 c-10 -9 4 -44 18 -44 8 0 11 6 8 15 -4 8 -10 15 -16 15 -5
0 -6 5 -3 10 7 11 2 14 -7 4z"/>
<path d="M937 4776 c-3 -8 0 -17 7 -19 10 -4 12 1 9 14 -6 23 -9 24 -16 5z"/>
<path d="M1640 4766 c0 -2 7 -9 15 -16 9 -7 15 -8 15 -2 0 5 -7 12 -15 16 -8
3 -15 4 -15 2z"/>
<path d="M1017 4747 c-3 -7 3 -13 14 -13 22 0 25 12 5 19 -8 3 -16 0 -19 -6z"/>
<path d="M1235 4719 c2 -41 24 -103 25 -71 0 7 5 10 10 7 6 -4 8 -10 6 -14 -3
-4 0 -13 5 -21 7 -11 9 -2 5 30 -3 25 -3 37 0 28 5 -15 44 -27 44 -13 0 11
-64 75 -75 75 -7 0 -15 6 -18 13 -3 6 -4 -9 -2 -34z"/>
<path d="M983 4727 c-14 -23 -13 -47 2 -47 8 0 15 6 15 14 0 8 4 16 9 18 5 2
3 9 -4 15 -11 10 -16 10 -22 0z"/>
<path d="M1175 4726 c-6 -18 -1 -56 8 -56 4 0 15 0 25 0 11 0 17 8 18 24 1 18
-2 23 -14 19 -11 -5 -14 -2 -10 9 4 9 0 15 -9 15 -8 0 -16 -5 -18 -11z"/>
<path d="M2381 4723 c7 -10 27 -31 44 -48 51 -49 76 -87 70 -106 -5 -15 -1
-17 25 -13 17 3 31 1 31 -5 3 -21 4 -26 12 -38 5 -7 4 -13 -1 -13 -6 0 -9 -8
-8 -17 1 -24 -54 -21 -72 4 -11 16 -14 16 -22 3 -5 -8 -10 -22 -11 -30 0 -8
-2 -26 -5 -40 -4 -24 -3 -24 11 -6 8 11 15 27 15 36 0 15 5 16 35 6 29 -9 34
-15 31 -36 -14 -88 -15 -106 -7 -118 13 -22 67 12 99 61 15 23 39 58 53 77 67
88 59 161 -23 234 -58 51 -107 66 -220 66 -65 0 -70 -1 -57 -17z m39 -2 c0 -5
10 -11 22 -13 14 -2 24 -11 25 -23 2 -17 1 -17 -3 -2 -3 10 -12 16 -19 13 -7
-2 -21 4 -31 15 -10 11 -12 19 -6 19 7 0 12 -4 12 -9z m70 -67 c0 -8 -5 -12
-10 -9 -6 4 -8 11 -5 16 9 14 15 11 15 -7z"/>
<path d="M1039 4673 c-13 -16 -12 -17 4 -4 9 7 17 15 17 17 0 8 -8 3 -21 -13z"/>
<path d="M1600 4665 c-14 -8 -19 -14 -11 -15 8 0 11 -7 8 -20 -6 -24 -6 -24
25 -7 20 10 23 17 17 35 -10 26 -7 25 -39 7z"/>
<path d="M1300 4622 c0 -12 4 -22 9 -22 10 0 9 26 -2 36 -4 4 -7 -2 -7 -14z"/>
<path d="M1356 4627 c4 -12 2 -17 -7 -15 -23 5 -23 -45 0 -59 17 -11 19 -10
15 2 -4 8 -10 15 -15 15 -5 0 -9 9 -9 21 0 11 4 18 9 14 15 -9 25 15 12 28 -9
9 -11 8 -5 -6z"/>
<path d="M1261 4604 c0 -11 3 -14 6 -6 3 7 2 16 -1 19 -3 4 -6 -2 -5 -13z"/>
<path d="M1620 4610 c0 -5 5 -10 11 -10 5 0 7 5 4 10 -3 6 -8 10 -11 10 -2 0
-4 -4 -4 -10z"/>
<path d="M1051 4601 c-10 -6 -10 -10 -1 -16 13 -8 24 -1 19 14 -3 6 -10 7 -18
2z"/>
<path d="M1879 4597 c5 -5 28 -7 52 -5 l44 3 -52 5 c-29 3 -48 1 -44 -3z"/>
<path d="M1286 4585 c3 -7 12 -16 19 -19 9 -3 12 0 9 9 -3 7 -12 16 -19 19 -9
3 -12 0 -9 -9z"/>
<path d="M1387 4563 c4 -10 11 -21 17 -25 16 -11 38 -9 34 3 -2 6 -7 10 -12 9
-5 -1 -13 5 -18 14 -12 22 -29 20 -21 -1z"/>
<path d="M2922 4491 c-12 -20 -36 -53 -54 -73 -17 -21 -29 -41 -25 -44 3 -3
30 0 59 7 29 7 56 12 61 11 4 -1 7 3 7 8 0 21 26 4 37 -25 11 -28 11 -27 6 18
l-6 47 34 -6 c19 -3 43 -7 54 -9 28 -5 -38 50 -84 70 -20 9 -43 20 -51 24 -12
7 -21 -1 -38 -28z"/>
<path d="M1796 4503 c-6 -14 -5 -15 5 -6 7 7 10 15 7 18 -3 3 -9 -2 -12 -12z"/>
<path d="M1430 4506 c0 -2 9 -6 20 -9 11 -3 20 -1 20 4 0 5 -9 9 -20 9 -11 0
-20 -2 -20 -4z"/>
<path d="M3057 4499 c7 -7 15 -10 18 -7 3 3 -2 9 -12 12 -14 6 -15 5 -6 -5z"/>
<path d="M3110 4471 c14 -11 31 -21 39 -21 18 0 14 4 -29 24 l-35 17 25 -20z"/>
<path d="M9 4478 c0 -2 -2 -113 -3 -248 l-2 -245 41 -44 c22 -24 84 -79 137
-123 87 -70 120 -104 185 -186 l18 -23 17 33 c9 18 24 54 34 81 9 26 19 45 21
43 4 -4 -27 -102 -52 -168 -3 -7 18 -49 46 -93 29 -44 70 -113 92 -152 21 -40
43 -73 48 -73 5 0 9 -9 9 -19 0 -27 17 -35 29 -14 8 14 9 11 5 -13 -5 -27 2
-44 44 -105 129 -192 254 -269 355 -220 75 36 118 151 114 302 l-2 79 -53 53
c-29 29 -49 57 -45 61 4 4 0 4 -10 0 -9 -3 -17 -10 -17 -15 0 -5 -4 -9 -9 -9
-5 0 -7 9 -4 20 4 16 2 19 -11 14 -19 -7 -19 -9 -6 -34 7 -13 6 -21 -5 -30
-18 -15 -34 -5 -17 12 16 16 -3 48 -28 48 -11 0 -20 4 -20 9 0 6 9 8 21 6 17
-4 19 -2 9 10 -15 18 1 20 20 3 12 -11 12 -10 1 5 -16 21 -35 22 -51 2 -7 -8
-16 -12 -21 -9 -5 3 -9 -2 -9 -11 0 -9 5 -13 10 -10 6 3 10 1 10 -4 0 -6 -7
-11 -15 -11 -12 0 -15 9 -13 38 2 28 0 36 -12 34 -11 -2 -10 1 3 12 13 10 15
16 6 21 -6 4 -15 2 -19 -5 -5 -8 -9 -5 -13 10 -5 18 -2 21 14 17 10 -3 17 -1
13 4 -3 5 6 9 20 9 18 0 26 5 26 18 0 13 6 10 23 -12 21 -26 24 -27 30 -11 5
12 3 16 -7 12 -8 -3 -17 1 -20 8 -7 18 27 37 49 29 13 -5 15 -2 9 20 -8 32 9
34 25 4 6 -13 9 -15 7 -5 -3 9 -1 17 4 17 6 0 5 11 -2 25 -6 14 -16 25 -23 25
-6 0 -11 10 -11 22 1 18 -5 23 -26 23 -15 1 -24 -3 -21 -8 3 -4 11 -6 19 -3 8
3 11 0 7 -10 -3 -7 -9 -14 -13 -14 -5 0 -8 -8 -7 -18 1 -15 8 -18 37 -16 19 2
28 0 20 -3 -8 -3 -20 -11 -26 -19 -9 -11 -17 -8 -45 17 -19 17 -29 28 -22 25
6 -4 14 -2 17 3 4 5 -2 12 -11 14 -16 4 -16 5 -1 6 24 2 11 36 -19 50 -15 7
-23 17 -20 25 5 14 -10 36 -25 36 -4 0 -8 -6 -8 -14 0 -8 -7 -16 -14 -19 -10
-4 -13 -1 -9 9 3 7 0 14 -6 14 -6 0 -11 -6 -11 -14 0 -18 -22 -26 -55 -20 -15
3 -25 1 -23 -4 1 -4 19 -38 38 -76 25 -50 36 -63 40 -50 6 16 7 16 13 1 3 -9
2 -19 -3 -22 -18 -11 -10 -25 15 -25 18 0 23 -4 19 -15 -5 -12 -9 -13 -20 -4
-12 10 -13 8 -9 -7 3 -10 -3 -3 -13 16 -65 127 -64 126 -74 105 -7 -18 -8 -17
-4 4 5 27 -13 73 -25 65 -5 -3 -9 2 -9 10 0 25 -71 137 -149 234 -36 46 -37
67 0 33 12 -11 26 -18 32 -14 5 3 -2 13 -16 22 -28 16 -41 37 -32 51 6 10 35
2 33 -8 -2 -19 3 -32 13 -32 5 0 8 4 4 9 -3 5 7 19 21 30 18 14 22 21 11 21
-8 0 -18 -7 -21 -16 -8 -20 -20 -10 -22 17 -3 35 -4 39 -15 39 -8 0 -8 -4 -1
-13 7 -8 7 -18 2 -27 -9 -13 -10 -13 -10 0 0 12 -2 13 -9 1 -5 -7 -14 -10 -20
-7 -7 5 -11 -1 -11 -13 0 -12 5 -21 12 -21 9 0 9 -3 1 -11 -9 -9 -19 -3 -39
22 -40 50 -189 193 -271 261 -69 56 -73 58 -73 34 0 -14 -5 -28 -11 -31 -7 -5
-8 4 -4 27 6 32 3 36 -51 76 -49 37 -72 49 -75 40z m121 -255 c-11 -67 -59
-217 -67 -210 -2 2 10 44 26 93 16 49 32 113 36 142 4 29 9 51 12 48 3 -3 0
-36 -7 -73z m380 -238 c0 -19 -4 -35 -8 -35 -4 0 -6 16 -4 35 2 19 6 35 8 35
2 0 4 -16 4 -35z m-8 -70 c-2 -14 -6 -25 -8 -25 -2 0 -4 11 -4 25 0 14 4 25 9
25 4 0 6 -11 3 -25z m-17 -72 c-4 -21 -11 -45 -16 -53 -10 -16 -8 -5 6 58 10
45 19 40 10 -5z m365 -103 c-20 -13 -33 -13 -25 0 3 6 14 10 23 10 15 0 15 -2
2 -10z m-46 -24 c-3 -9 -13 -16 -21 -16 -8 0 -13 6 -10 13 2 6 10 11 16 10 6
-2 11 2 11 9 0 6 2 9 5 6 3 -3 3 -13 -1 -22z m-97 -38 c-3 -7 -5 -2 -5 12 0
14 2 19 5 13 2 -7 2 -19 0 -25z m225 -63 c5 -6 8 -5 8 2 0 7 7 10 15 7 22 -9
-3 -43 -27 -36 -10 2 -18 -1 -18 -7 0 -6 -7 -11 -15 -11 -11 0 -12 5 -5 26 13
33 13 47 0 39 -5 -3 -10 2 -10 11 0 16 2 15 23 -2 12 -10 25 -23 29 -29z
m-195 -27 c-3 -8 -6 -5 -6 6 -1 11 2 17 5 13 3 -3 4 -12 1 -19z m-10 -50 c-3
-7 -5 -2 -5 12 0 14 2 19 5 13 2 -7 2 -19 0 -25z m-13 -57 c-4 -17 -9 -30 -11
-27 -3 2 -2 19 2 36 9 41 17 33 9 -9z m-53 -38 c-9 -16 -10 -16 -11 -1 0 9 3
25 7 35 7 16 8 17 11 1 2 -10 -1 -25 -7 -35z m30 -34 c-5 -13 -10 -19 -10 -12
-1 15 10 45 15 40 3 -2 0 -15 -5 -28z m235 -55 l-1 -45 -13 31 c-10 25 -10 33
0 45 7 8 13 14 14 15 0 0 0 -21 0 -46z m-295 9 c-12 -20 -14 -14 -5 12 4 9 9
14 11 11 3 -2 0 -13 -6 -23z m46 -5 c-3 -8 -6 -5 -6 6 -1 11 2 17 5 13 3 -3 4
-12 1 -19z m195 -20 c-8 -8 -9 -4 -5 13 4 13 8 18 11 10 2 -7 -1 -18 -6 -23z
m158 -3 c0 -5 -5 -3 -10 5 -5 8 -10 20 -10 25 0 6 5 3 10 -5 5 -8 10 -19 10
-25z m-372 -37 c-6 -18 -13 -27 -15 -21 -4 11 13 53 22 53 2 0 -1 -15 -7 -32z
m197 -50 c-4 -24 -11 -50 -17 -58 -7 -12 -8 -11 -4 5 3 11 8 37 12 58 3 20 8
37 11 37 3 0 2 -19 -2 -42z m94 2 c0 -10 -3 -8 -9 5 -12 27 -12 43 0 25 5 -8
9 -22 9 -30z m-134 -133 c-14 -34 -30 -53 -20 -24 19 54 26 69 30 65 3 -3 -2
-21 -10 -41z"/>
<path d="M1165 4470 c-4 -6 -12 -7 -18 -4 -7 3 5 -10 25 -30 20 -20 38 -36 40
-36 11 0 4 39 -8 44 -8 3 -14 12 -14 21 0 17 -16 20 -25 5z"/>
<path d="M1240 4449 c0 -5 5 -7 10 -4 6 3 10 8 10 11 0 2 -4 4 -10 4 -5 0 -10
-5 -10 -11z"/>
<path d="M1406 4428 c9 -33 14 -35 28 -16 7 10 17 14 22 10 4 -4 2 1 -5 11
-14 18 -26 24 -16 7 3 -5 -1 -10 -10 -10 -9 0 -13 5 -10 10 3 6 1 10 -5 10 -7
0 -9 -8 -4 -22z"/>
<path d="M3170 4442 c0 -5 12 -14 26 -20 14 -7 23 -8 19 -2 -9 15 -45 32 -45
22z"/>
<path d="M2500 4419 c0 -5 5 -7 10 -4 6 3 10 8 10 11 0 2 -4 4 -10 4 -5 0 -10
-5 -10 -11z"/>
<path d="M3270 4367 c24 -26 46 -47 48 -47 9 0 -27 40 -58 65 -29 24 -28 21
10 -18z"/>
<path d="M3403 4397 c2 -7 13 -13 25 -15 15 -2 20 1 17 10 -7 17 -48 22 -42 5z"/>
<path d="M3360 4335 c40 -15 89 -20 75 -6 -6 4 -32 11 -60 14 l-50 6 35 -14z"/>
<path d="M2030 4336 c0 -2 7 -9 15 -16 13 -11 14 -10 9 4 -5 14 -24 23 -24 12z"/>
<path d="M2022 4299 c-1 -15 -5 -42 -8 -60 -4 -28 -3 -31 6 -16 6 9 9 36 7 60
-2 23 -4 30 -5 16z"/>
<path d="M2070 4280 c6 -11 13 -20 16 -20 2 0 0 9 -6 20 -6 11 -13 20 -16 20
-2 0 0 -9 6 -20z"/>
<path d="M2097 4289 c13 -13 67 -23 60 -12 -4 6 -20 13 -37 15 -17 3 -27 1
-23 -3z"/>
<path d="M314 4275 c12 -9 40 -15 72 -15 29 0 61 -3 71 -6 17 -6 17 -6 2 11
-12 12 -37 18 -90 21 -68 4 -72 3 -55 -11z"/>
<path d="M647 4259 c7 -7 15 -10 18 -7 3 3 -2 9 -12 12 -14 6 -15 5 -6 -5z"/>
<path d="M534 4253 c11 -11 46 -14 46 -3 0 6 -12 10 -27 10 -14 0 -23 -3 -19
-7z"/>
<path d="M362 4230 c14 -22 33 -28 23 -7 -3 6 0 4 7 -7 36 -52 47 -61 57 -47
7 11 10 9 16 -8 3 -11 11 -21 16 -21 6 0 8 4 5 8 -3 5 1 9 9 9 8 0 12 -4 9 -9
-3 -4 7 -8 22 -8 l27 0 -22 24 c-23 24 -17 42 9 25 13 -7 13 -9 0 -9 -13 0
-13 -1 0 -10 23 -15 29 -12 26 15 -4 33 -4 33 -55 40 -24 3 -47 7 -51 10 -5 3
-11 -3 -13 -12 -4 -15 -5 -15 -6 -2 -1 17 -29 29 -69 29 -20 0 -21 -2 -10 -20z
m133 -39 c3 -5 1 -12 -5 -16 -5 -3 -10 1 -10 9 0 18 6 21 15 7z"/>
<path d="M587 4237 c-5 -12 -1 -17 13 -17 12 0 20 7 20 18 0 13 -2 14 -9 3 -7
-11 -9 -11 -13 0 -3 9 -6 8 -11 -4z"/>
<path d="M640 4220 c-13 -9 -13 -10 0 -11 51 -5 61 -7 75 -19 12 -10 15 -10
15 4 0 9 -4 17 -10 17 -5 1 -14 2 -19 3 -5 0 -13 4 -17 9 -10 10 -26 9 -44 -3z"/>
<path d="M580 4181 c0 -31 14 -49 25 -31 3 5 1 10 -5 10 -8 0 -10 9 -6 25 4
14 2 25 -4 25 -5 0 -10 -13 -10 -29z"/>
<path d="M612 4191 c-8 -5 -7 -13 4 -29 13 -18 19 -21 30 -11 19 16 18 0 -2
-22 -15 -16 -14 -17 5 -12 14 4 21 14 22 32 0 19 2 21 7 10 6 -13 9 -14 18 -5
9 10 2 16 -31 28 -23 9 -47 13 -53 9z"/>
<path d="M1996 4184 c-5 -14 -4 -15 9 -4 17 14 19 20 6 20 -5 0 -12 -7 -15
-16z"/>
<path d="M750 4140 c0 -5 5 -10 11 -10 5 0 7 5 4 10 -3 6 -8 10 -11 10 -2 0
-4 -4 -4 -10z"/>
<path d="M488 4113 c7 -3 16 -2 19 1 4 3 -2 6 -13 5 -11 0 -14 -3 -6 -6z"/>
<path d="M2038 4089 c-10 -5 -18 -7 -18 -4 0 3 -22 -6 -50 -20 -27 -14 -50
-30 -50 -36 0 -5 -4 -7 -10 -4 -6 4 -7 -1 -3 -11 5 -13 3 -16 -10 -11 -9 3
-19 2 -22 -3 -4 -6 1 -10 10 -10 24 0 56 20 50 31 -9 14 37 28 58 17 13 -7 23
-2 42 18 14 15 25 31 25 35 0 11 -1 11 -22 -2z"/>
<path d="M2170 4085 c0 -2 9 -28 19 -57 11 -29 25 -73 32 -98 6 -25 14 -40 16
-33 2 6 -7 43 -20 82 -13 39 -21 72 -17 73 3 2 -2 11 -12 21 -10 9 -18 15 -18
12z"/>
<path d="M3402 4060 c0 -14 2 -19 5 -12 2 6 2 18 0 25 -3 6 -5 1 -5 -13z"/>
<path d="M3514 4066 c11 -9 24 -16 30 -16 12 0 7 5 -24 19 -24 11 -24 11 -6
-3z"/>
<path d="M643 4062 c-8 -5 -6 -14 8 -31 10 -13 19 -18 19 -13 0 6 -4 14 -10
17 -5 3 -10 11 -10 16 0 6 5 7 10 4 6 -3 10 -1 10 4 0 13 -10 14 -27 3z"/>
<path d="M2220 4038 c0 -5 5 -8 10 -8 6 0 19 -15 30 -32 18 -31 20 -31 20 -9
0 18 4 22 18 16 43 -18 53 -15 15 5 -24 12 -43 26 -43 30 0 4 -11 7 -25 6 -14
0 -25 -4 -25 -8z"/>
<path d="M761 4021 c-11 -7 -11 -9 0 -14 12 -5 11 -8 -1 -17 -13 -10 -12 -11
3 -6 10 3 24 6 30 6 9 0 9 2 1 8 -6 4 -13 12 -15 19 -2 8 -9 9 -18 4z"/>
<path d="M3436 4005 c4 -8 8 -15 10 -15 2 0 4 7 4 15 0 8 -4 15 -10 15 -5 0
-7 -7 -4 -15z"/>
<path d="M823 3981 c0 -11 5 -18 9 -15 4 3 5 11 1 19 -7 21 -12 19 -10 -4z"/>
<path d="M2096 3974 c-38 -13 -80 -33 -92 -45 -28 -26 -40 -85 -22 -107 11
-13 11 -15 -2 -8 -8 4 -7 1 3 -7 12 -10 14 -16 6 -19 -35 -12 43 -108 88 -108
35 0 105 56 129 103 15 29 15 31 -2 44 -18 14 -18 15 -1 24 14 8 17 18 11 42
-6 29 -41 109 -47 106 -1 -1 -33 -12 -71 -25z"/>
<path d="M3451 3968 c-1 -10 -5 -18 -11 -18 -13 0 -13 -47 1 -56 6 -4 10 1 8
12 -1 11 1 27 5 36 5 10 6 23 3 30 -4 8 -6 6 -6 -4z"/>
<path d="M893 3870 c9 -6 15 -15 12 -21 -4 -5 1 -9 9 -9 9 0 16 -4 16 -9 0 -5
7 -11 15 -15 13 -5 14 -2 4 17 -17 30 -30 42 -54 45 -18 2 -19 2 -2 -8z"/>
<path d="M767 3829 c-3 -12 0 -22 9 -26 8 -3 11 -9 8 -14 -3 -5 2 -9 11 -9 8
0 18 7 22 16 3 9 12 13 22 10 12 -5 11 -2 -3 9 -10 8 -23 12 -28 9 -4 -3 -11
2 -14 10 -8 22 -21 20 -27 -5z"/>
<path d="M830 3846 c0 -2 7 -7 16 -10 8 -3 12 -2 9 4 -6 10 -25 14 -25 6z"/>
<path d="M872 3829 c4 -12 108 -76 108 -65 0 13 -45 46 -57 42 -7 -3 -13 -1
-13 4 0 5 -10 14 -21 21 -17 8 -20 8 -17 -2z"/>
<path d="M714 3793 c10 -11 37 -12 30 -2 -3 5 -12 9 -21 9 -9 0 -13 -3 -9 -7z"/>
<path d="M2262 3770 c0 -14 2 -19 5 -12 2 6 2 18 0 25 -3 6 -5 1 -5 -13z"/>
<path d="M920 3755 c0 -8 11 -17 25 -21 38 -9 41 2 6 21 -27 14 -31 14 -31 0z"/>
<path d="M2270 3707 c0 -20 5 -39 11 -42 7 -5 8 5 3 32 -9 51 -14 54 -14 10z"/>
<path d="M2254 3640 c-6 -6 -26 -19 -45 -29 -29 -15 -34 -24 -37 -58 -5 -64
36 -94 73 -53 14 16 19 37 19 85 1 36 1 65 1 65 -1 0 -6 -5 -11 -10z"/>
<path d="M231 3605 c-79 -42 -107 -69 -120 -109 -16 -52 -17 -91 -3 -88 9 2
12 -5 8 -20 -4 -15 -1 -13 9 7 7 17 12 40 10 53 -2 12 0 20 6 17 5 -4 9 -15 9
-25 0 -20 31 -22 64 -3 16 9 16 11 2 22 -21 18 -20 29 2 27 12 -1 17 6 17 23
0 14 6 26 13 29 6 2 12 10 12 17 0 17 28 27 33 12 2 -7 8 -8 13 -4 4 4 3 17
-4 27 -6 11 -9 26 -6 35 8 20 9 20 -65 -20z m-41 -135 c0 -5 -5 -10 -11 -10
-5 0 -7 5 -4 10 3 6 8 10 11 10 2 0 4 -4 4 -10z"/>
<path d="M2291 3630 c0 -14 28 -72 29 -59 0 4 -7 22 -15 40 -8 19 -14 27 -14
19z"/>
<path d="M1037 3585 c-15 -11 -16 -17 -7 -34 7 -14 7 -21 0 -21 -5 0 -10 8
-10 17 0 16 -1 16 -17 0 -13 -13 -15 -20 -7 -25 8 -5 4 -13 -11 -25 -15 -10
-26 -13 -30 -7 -3 5 -1 10 6 10 7 0 10 3 6 6 -3 3 -11 3 -18 -1 -8 -5 2 -20
31 -46 24 -22 47 -39 52 -39 5 0 32 -24 59 -52 47 -51 49 -52 43 -23 -3 17 -8
37 -11 45 -3 8 -7 24 -9 35 -4 28 -42 147 -52 162 -5 8 -12 8 -25 -2z m0 -109
c-3 -7 4 -18 14 -24 10 -7 19 -18 18 -25 0 -9 -2 -9 -6 1 -2 6 -14 12 -25 12
-16 0 -19 5 -15 21 4 15 2 18 -7 10 -9 -8 -13 -7 -13 2 0 7 9 14 20 14 11 1
17 -3 14 -11z m40 8 c-3 -3 -12 -4 -19 -1 -8 3 -5 6 6 6 11 1 17 -2 13 -5z"/>
<path d="M360 3579 c0 -5 5 -7 10 -4 6 3 10 8 10 11 0 2 -4 4 -10 4 -5 0 -10
-5 -10 -11z"/>
<path d="M332 3501 c-6 -17 -9 -31 -6 -31 7 0 25 52 20 57 -2 2 -8 -10 -14
-26z"/>
<path d="M318 3422 c3 -24 7 -30 13 -21 13 21 11 56 -4 56 -8 0 -11 -11 -9
-35z"/>
<path d="M2306 3444 c-4 -9 -4 -19 -1 -22 2 -3 7 3 11 12 4 9 4 19 1 22 -2 3
-7 -3 -11 -12z"/>
<path d="M2291 3394 c0 -11 3 -14 6 -6 3 7 2 16 -1 19 -3 4 -6 -2 -5 -13z"/>
<path d="M90 3361 c0 -5 5 -13 10 -16 6 -3 10 -2 10 4 0 5 -4 13 -10 16 -5 3
-10 2 -10 -4z"/>
<path d="M270 3336 c0 -9 5 -16 10 -16 6 0 10 4 10 9 0 6 -4 13 -10 16 -5 3
-10 -1 -10 -9z"/>
<path d="M196 3279 c3 -5 12 -9 21 -9 19 0 9 13 -12 16 -8 1 -13 -2 -9 -7z"/>
<path d="M329 3266 c-2 -3 -18 -7 -34 -10 -17 -3 -42 -8 -57 -12 -17 -3 -28
-1 -28 5 0 6 -5 11 -11 11 -5 0 -7 -5 -3 -11 4 -7 0 -9 -13 -5 -14 5 -23 -1
-33 -19 -7 -14 -20 -25 -27 -25 -19 0 -13 -40 9 -53 22 -14 113 32 113 57 0
21 21 35 44 29 9 -2 25 5 35 16 16 17 20 31 5 17z"/>
<path d="M258 3213 c7 -3 16 -2 19 1 4 3 -2 6 -13 5 -11 0 -14 -3 -6 -6z"/>
<path d="M387 2743 c-14 -4 -18 -12 -14 -29 2 -13 0 -24 -6 -24 -6 0 -7 -3 -4
-6 10 -10 38 17 30 29 -3 5 -1 7 4 4 6 -4 18 2 28 13 17 19 17 20 -1 19 -10
-1 -27 -3 -37 -6z"/>
<path d="M300 2664 c0 -17 -7 -25 -24 -30 -14 -3 -27 -12 -30 -20 -8 -21 71
21 83 45 9 15 7 20 -9 24 -16 4 -20 0 -20 -19z"/>
<path d="M608 2683 c7 -3 16 -2 19 1 4 3 -2 6 -13 5 -11 0 -14 -3 -6 -6z"/>
</g>
</svg>
