<?xml version="1.0" standalone="no"?>
<!DOCTYPE svg PUBLIC "-//W3C//DTD SVG 20010904//EN"
 "http://www.w3.org/TR/2001/REC-SVG-20010904/DTD/svg10.dtd">
<svg version="1.0" xmlns="http://www.w3.org/2000/svg"
 width="1132.000000pt" height="713.000000pt" viewBox="0 0 1132.000000 713.000000"
 preserveAspectRatio="xMidYMid meet">

<g transform="translate(0.000000,713.000000) scale(0.100000,-0.100000)"
fill="#000000" stroke="none">
<path d="M5125 6284 c-49 -7 -106 -11 -125 -9 -19 2 -26 1 -15 -2 13 -4 -9
-12 -65 -24 -47 -10 -110 -23 -140 -30 -96 -20 -100 -23 -100 -73 0 -24 -6
-48 -12 -54 -16 -12 -134 -62 -165 -69 -33 -8 -28 -20 7 -21 17 0 30 4 30 9 0
5 5 9 10 9 18 0 11 -38 -8 -44 -18 -6 -27 -21 -50 -77 -10 -25 -13 -25 -93
-25 -74 1 -87 4 -107 24 -13 13 -21 26 -18 29 3 4 6 2 6 -2 0 -5 6 0 14 11 31
41 -43 34 -110 -11 -19 -13 -40 -25 -47 -28 -9 -3 -8 -11 2 -33 16 -31 15 -62
-1 -81 -16 -20 17 -28 60 -15 20 6 67 16 104 22 77 12 119 28 116 44 -2 6 2
12 7 13 6 0 9 -3 7 -9 -4 -14 81 -2 158 22 36 11 87 25 114 30 63 13 76 24 76
67 0 29 -5 36 -29 46 -16 6 -34 20 -40 31 -5 12 -10 15 -10 9 -1 -15 -21 -18
-21 -4 0 5 15 14 33 20 19 6 51 20 72 31 22 11 54 20 72 20 18 0 74 13 125 30
234 74 352 89 632 80 72 -2 85 -6 132 -37 56 -37 64 -52 64 -123 0 -54 -32
-126 -91 -207 -100 -137 -379 -385 -594 -528 -49 -33 -92 -62 -95 -65 -6 -6
-33 -23 -80 -50 -19 -11 -64 -39 -100 -61 -212 -134 -722 -401 -1020 -535
-162 -74 -220 -92 -95 -31 50 24 106 57 125 74 19 16 51 41 71 54 19 13 78 52
129 87 119 80 283 162 324 162 28 0 76 19 51 20 -5 0 -2 5 8 11 9 5 21 8 26 4
5 -3 12 -1 16 5 6 10 109 60 124 60 5 0 11 -5 13 -11 4 -11 57 16 181 91 57
34 38 35 -32 1 -33 -16 -79 -32 -101 -36 -25 -4 -38 -11 -33 -17 3 -6 2 -8 -4
-5 -10 7 -135 -41 -230 -87 -29 -14 -59 -26 -66 -26 -19 0 -171 -65 -225 -96
-131 -76 -478 -322 -468 -331 3 -3 -25 -20 -62 -39 -37 -18 -64 -33 -61 -33 6
-1 207 85 334 143 44 20 107 49 140 64 72 32 387 191 500 252 380 204 807 474
1025 649 52 42 161 142 242 223 81 80 156 149 166 152 30 10 42 65 25 116 -22
64 -55 110 -79 110 -11 0 -56 19 -100 42 -133 70 -173 78 -379 77 -99 -1 -220
-7 -270 -15z m-455 -254 c0 -5 -4 -10 -9 -10 -6 0 -13 5 -16 10 -3 6 1 10 9
10 9 0 16 -4 16 -10z m-15 -960 c-3 -5 -12 -10 -18 -10 -7 0 -6 4 3 10 19 12
23 12 15 0z"/>
<path d="M5358 6090 c-70 -6 -87 -20 -25 -20 25 0 48 -4 52 -10 3 -5 13 -6 21
-3 9 3 29 -4 45 -16 22 -17 33 -19 48 -11 25 13 81 2 81 -16 0 -17 17 -19 22
-2 3 8 17 7 51 -5 37 -12 47 -13 47 -3 0 19 -31 43 -65 52 -16 4 -34 10 -40
14 -9 7 -98 21 -155 24 -14 1 -51 -1 -82 -4z"/>
<path d="M5124 6066 c-12 -9 -14 -15 -5 -20 13 -9 51 2 51 14 0 15 -28 19 -46
6z"/>
<path d="M4932 6062 c-25 -4 -36 -21 -45 -70 -6 -28 -3 -34 18 -44 19 -9 28
-9 37 0 7 7 18 12 25 12 8 0 27 16 44 35 17 19 38 35 48 35 13 1 12 3 -4 12
-24 14 -90 25 -123 20z"/>
<path d="M5786 5772 c-222 -214 -795 -598 -1281 -857 -520 -277 -1048 -505
-1675 -721 -86 -30 -135 -51 -110 -47 25 4 55 6 67 6 14 -1 20 3 16 10 -4 6 2
8 15 5 12 -4 119 27 258 73 131 43 241 79 246 79 18 0 6 -16 -19 -27 -16 -6
-77 -32 -138 -58 -165 -69 -345 -133 -458 -161 -137 -35 -238 -56 -262 -56
-11 0 -67 -13 -125 -29 -125 -33 -312 -63 -344 -55 -22 5 -252 -42 -391 -80
-33 -9 -70 -19 -83 -21 -43 -10 -35 -25 9 -19 24 3 91 8 149 11 58 4 180 17
271 31 177 26 407 71 374 73 -34 3 3 18 75 31 57 10 148 36 421 120 79 24 91
25 61 4 -12 -8 -50 -21 -84 -28 -35 -8 -110 -30 -168 -49 -58 -19 -131 -41
-163 -48 -31 -7 -55 -14 -53 -16 2 -2 61 7 131 21 70 15 132 23 137 19 7 -3 8
-1 4 6 -9 14 8 21 68 25 40 3 46 1 33 -9 -13 -9 2 -12 76 -14 108 -2 170 6
160 21 -4 8 4 9 25 5 20 -4 32 -2 35 6 2 7 8 9 12 5 4 -4 2 -14 -5 -23 -11
-13 -8 -15 15 -15 23 0 26 2 15 15 -10 12 -10 15 3 15 8 0 17 -5 19 -11 3 -8
27 -4 76 12 39 12 67 26 62 29 -5 3 5 6 23 6 75 1 621 227 795 328 33 20 107
75 164 122 57 48 124 100 151 117 26 16 47 36 47 43 0 8 5 14 11 14 5 0 7 -4
4 -10 -3 -5 -2 -10 3 -10 15 0 22 27 16 58 -2 15 -1 32 3 37 17 23 74 57 88
51 8 -3 17 3 20 15 4 10 11 19 17 19 19 0 47 31 41 46 -3 8 -1 14 5 14 6 0 12
-5 14 -12 3 -8 15 -4 37 11 18 13 35 21 37 18 3 -3 13 2 23 11 9 9 29 26 43
36 16 12 24 25 20 34 -3 10 -1 13 6 8 6 -3 15 2 21 12 8 15 246 166 346 220
12 6 45 31 71 55 27 23 83 69 124 102 41 33 77 63 80 66 3 3 41 33 85 68 116
90 174 137 223 182 24 21 52 39 63 39 16 0 19 5 14 19 -4 14 0 23 13 30 23 12
48 71 30 71 -5 0 -56 -44 -112 -98z m-896 -692 c0 -5 -5 -10 -11 -10 -5 0 -7
5 -4 10 3 6 8 10 11 10 2 0 4 -4 4 -10z m-480 -421 c0 -6 -4 -7 -10 -4 -5 3
-10 11 -10 16 0 6 5 7 10 4 6 -3 10 -11 10 -16z m-1223 -625 c-3 -3 -12 -4
-19 -1 -8 3 -5 6 6 6 11 1 17 -2 13 -5z m-240 -30 c-3 -3 -12 -4 -19 -1 -8 3
-5 6 6 6 11 1 17 -2 13 -5z"/>
<path d="M3365 5769 c-533 -228 -835 -369 -1145 -536 -150 -80 -345 -196 -415
-245 -22 -16 -51 -36 -65 -46 -246 -167 -390 -283 -540 -438 -158 -163 -230
-273 -230 -354 0 -35 15 -41 73 -28 51 10 67 28 107 113 37 79 77 125 109 125
15 0 33 -6 40 -12 11 -11 12 -2 6 47 -6 58 -5 61 24 89 16 16 33 41 36 57 6
25 47 70 87 96 7 4 26 28 43 51 25 38 102 102 195 165 13 9 41 17 62 17 42 0
58 -19 58 -68 0 -51 39 -63 91 -29 15 10 31 17 35 16 27 -5 46 4 56 26 6 14
17 25 25 25 7 0 13 5 13 10 0 6 8 10 18 10 10 0 25 9 35 20 22 26 17 25 -43
-5 -58 -29 -85 -31 -140 -9 -32 13 -40 21 -40 42 0 33 67 99 173 170 67 44 86
52 125 52 52 0 132 24 147 44 31 40 89 40 126 0 42 -45 65 -30 60 39 -2 26 0
28 26 26 33 -4 56 8 47 23 -5 8 2 8 22 2 37 -11 141 -9 157 3 7 5 32 16 56 23
26 8 46 22 49 32 6 23 38 32 155 45 l47 5 25 -55 c15 -31 40 -66 60 -81 41
-31 45 -32 45 -6 0 11 7 23 15 26 8 4 15 15 15 25 0 11 7 22 15 25 8 4 15 13
15 21 0 10 6 12 20 8 11 -3 20 -2 20 3 0 5 11 10 24 10 14 0 37 9 51 20 28 22
69 30 179 35 l69 3 -2 69 c-2 61 0 70 22 89 13 12 60 34 105 50 115 42 125 52
126 120 l1 56 -35 -6 c-19 -4 -64 -15 -98 -26 -35 -11 -77 -20 -93 -20 -33 -1
-69 27 -69 54 0 10 -5 18 -11 18 -5 0 -7 5 -4 10 14 23 -48 5 -180 -51z"/>
<path d="M6070 5725 c-10 -12 -10 -15 4 -15 9 0 16 7 16 15 0 8 -2 15 -4 15
-2 0 -9 -7 -16 -15z"/>
<path d="M5862 5672 c5 -19 3 -20 -12 -12 -29 16 -31 13 -25 -37 5 -46 25 -85
25 -50 0 9 6 17 13 17 17 0 21 87 5 97 -7 4 -9 -2 -6 -15z"/>
<path d="M5795 5530 c3 -5 10 -10 16 -10 5 0 9 5 9 10 0 6 -7 10 -16 10 -8 0
-12 -4 -9 -10z"/>
<path d="M4130 5522 c-21 -7 -40 -28 -33 -36 10 -10 25 -7 18 4 -4 6 7 10 24
10 17 0 31 4 31 9 0 12 -22 19 -40 13z"/>
<path d="M5740 5520 c0 -5 5 -10 10 -10 6 0 10 5 10 10 0 6 -4 10 -10 10 -5 0
-10 -4 -10 -10z"/>
<path d="M5760 5473 c0 -13 5 -23 10 -23 13 0 13 11 0 30 -8 12 -10 11 -10 -7z"/>
<path d="M6710 5463 c-30 -1 -132 -7 -227 -14 l-171 -12 -5 -26 c-3 -14 0 -37
6 -50 14 -28 79 -54 117 -47 44 8 328 19 532 20 191 1 198 2 218 24 24 26 44
28 82 8 19 -10 30 -11 34 -4 10 16 112 1 149 -22 38 -23 140 -28 148 -7 2 7 2
30 -2 52 l-6 40 -110 12 c-61 6 -137 12 -170 13 -50 2 -54 4 -25 9 32 6 -448
9 -570 4z"/>
<path d="M5540 5401 c0 -5 5 -13 10 -16 6 -3 10 -2 10 4 0 5 -4 13 -10 16 -5
3 -10 2 -10 -4z"/>
<path d="M7768 5403 c7 -3 16 -2 19 1 4 3 -2 6 -13 5 -11 0 -14 -3 -6 -6z"/>
<path d="M5486 5375 c-3 -10 3 -17 18 -21 18 -4 22 -11 18 -27 -3 -12 -2 -19
2 -15 9 7 46 -22 46 -36 0 -6 -5 -5 -12 2 -7 7 -20 12 -29 12 -10 0 -19 5 -21
12 -3 7 -12 9 -23 4 -17 -6 -17 -9 -5 -17 10 -7 11 -9 2 -7 -8 2 -14 8 -14 13
-1 6 -8 15 -17 22 -18 13 -45 -2 -34 -20 4 -6 0 -8 -10 -4 -10 3 -17 2 -17 -3
0 -18 -18 -10 -23 10 -6 23 -37 17 -37 -6 0 -8 -9 -14 -21 -14 -11 0 -32 -9
-46 -20 -14 -11 -20 -20 -14 -20 7 0 9 -5 6 -10 -4 -6 -11 -8 -16 -5 -5 4 -9
1 -9 -6 0 -8 -4 -8 -15 1 -12 10 -15 10 -15 0 0 -7 -8 -19 -17 -27 -11 -8 -12
-11 -3 -7 13 7 13 5 2 -8 -11 -14 -10 -17 5 -21 10 -3 3 -4 -15 -2 -24 2 -41
-4 -64 -23 l-31 -26 26 -11 c28 -12 25 -29 -8 -38 -11 -3 0 -4 25 -2 25 2 45
4 45 6 0 4 61 9 99 9 22 0 42 3 45 7 3 4 24 18 46 30 22 12 39 26 38 31 -1 5
4 9 12 8 8 0 15 4 16 9 2 6 19 18 39 27 49 24 78 49 63 55 -7 3 -13 12 -13 21
1 15 2 15 11 0 14 -25 29 -22 68 10 l32 27 -20 22 c-12 12 -21 29 -21 38 0 8
-4 15 -10 15 -15 0 -12 -26 5 -40 8 -7 15 -17 15 -23 0 -5 -12 2 -27 17 -14
14 -23 29 -20 33 10 10 -13 33 -33 33 -10 0 -20 -7 -24 -15z m44 1 c0 -3 -4
-8 -10 -11 -5 -3 -10 -1 -10 4 0 6 5 11 10 11 6 0 10 -2 10 -4z m-75 -96 c3
-5 1 -10 -4 -10 -6 0 -11 5 -11 10 0 6 2 10 4 10 3 0 8 -4 11 -10z m-135 -30
c-11 -21 -30 -27 -30 -9 0 5 5 7 10 4 6 -3 10 1 10 9 0 9 5 16 10 16 7 0 7 -6
0 -20z m55 -30 c3 -5 1 -10 -4 -10 -6 0 -11 5 -11 10 0 6 2 10 4 10 3 0 8 -4
11 -10z"/>
<path d="M5450 5358 c0 -9 7 -22 17 -29 15 -13 15 -12 3 11 -17 34 -20 36 -20
18z"/>
<path d="M8140 5325 c24 -8 46 -13 48 -11 5 5 -59 26 -77 25 -9 0 4 -7 29 -14z"/>
<path d="M8215 5300 c27 -12 43 -12 25 0 -8 5 -22 9 -30 9 -10 0 -8 -3 5 -9z"/>
<path d="M8260 5294 c0 -2 9 -8 20 -14 11 -6 20 -7 20 -2 0 6 -9 12 -20 15
-11 3 -20 3 -20 1z"/>
<path d="M8323 5234 c-7 -19 24 -54 49 -54 11 0 22 -9 25 -19 5 -20 43 -37 43
-19 0 5 10 8 23 6 16 -2 23 3 25 18 2 17 -8 25 -60 46 -93 38 -98 39 -105 22z"/>
<path d="M8550 5225 c0 -3 16 -11 35 -19 19 -8 38 -22 41 -31 8 -20 56 -45 87
-45 33 0 172 -70 244 -123 71 -53 89 -78 74 -106 -8 -14 -6 -22 8 -35 9 -9 23
-16 29 -16 6 0 20 -12 31 -27 10 -16 50 -53 87 -83 92 -76 122 -108 143 -156
10 -23 35 -59 55 -81 20 -22 36 -43 36 -46 0 -4 11 -30 24 -59 13 -29 27 -67
30 -85 4 -17 13 -33 20 -36 8 -3 11 -25 9 -68 -1 -35 -2 -80 -2 -99 -1 -28 -3
-32 -12 -20 -9 12 -10 11 -6 -8 6 -27 -16 -110 -45 -167 -36 -70 -214 -300
-268 -346 -29 -24 -58 -49 -64 -54 -46 -43 -156 -117 -301 -203 -93 -56 -177
-108 -185 -116 -57 -52 -538 -234 -795 -301 -169 -43 -564 -112 -805 -140 -74
-8 -171 -20 -215 -25 -339 -42 -849 -47 -1215 -12 -241 23 -421 47 -615 83
-338 61 -484 104 -695 205 -75 35 -141 64 -148 64 -7 0 -11 4 -8 8 3 5 -9 17
-27 27 -18 10 -59 40 -92 65 -67 52 -196 137 -202 132 -2 -1 -10 4 -19 12 -9
10 -25 13 -43 10 -17 -4 -32 -1 -36 5 -5 8 2 10 22 5 22 -5 26 -4 16 6 -6 7
-22 17 -34 24 -13 6 -26 25 -31 44 -5 17 -13 32 -19 32 -6 0 -8 -10 -4 -22 5
-20 5 -21 -5 -5 -6 9 -15 15 -21 12 -9 -6 8 41 23 61 5 7 19 10 31 8 20 -4 20
-4 -2 6 -17 7 -27 7 -37 -1 -7 -6 -17 -8 -23 -5 -5 4 -12 -3 -16 -13 -6 -20
-38 -36 -53 -27 -5 3 -18 -7 -30 -23 l-20 -28 23 -39 c12 -21 22 -43 21 -48
-2 -6 -1 -8 1 -3 3 4 9 4 15 1 6 -4 6 1 -1 13 -7 14 -7 23 1 31 8 8 7 16 -3
28 -12 15 -12 17 1 11 112 -46 132 -57 113 -57 -12 0 -28 -3 -37 -6 -20 -8
-21 -57 -1 -74 8 -7 15 -19 15 -26 0 -8 6 -14 13 -14 8 0 24 -12 38 -26 68
-73 353 -235 579 -329 165 -69 558 -182 695 -200 28 -4 66 -11 85 -15 19 -5
60 -11 90 -14 30 -3 102 -15 160 -26 58 -11 135 -20 172 -19 42 1 74 -3 83
-11 26 -22 396 -38 759 -35 305 4 330 5 346 22 12 14 55 26 151 42 301 52 416
72 456 81 23 6 54 10 70 10 21 0 10 -8 -45 -30 -40 -17 -83 -30 -95 -30 -12 0
-31 -7 -41 -15 -11 -8 -16 -15 -10 -15 50 1 447 73 557 101 37 10 46 22 27 34
-5 3 -10 14 -10 24 0 28 69 39 87 15 7 -10 13 -21 13 -26 0 -4 7 -8 16 -8 12
0 15 6 11 23 -8 31 1 43 55 66 25 10 49 24 52 30 4 6 16 11 28 11 11 0 32 9
48 20 15 11 130 55 256 99 319 111 312 108 379 143 65 33 270 154 375 221 172
109 455 354 491 425 7 15 25 43 40 62 14 19 29 45 33 58 4 12 11 22 16 22 5 0
7 7 3 15 -3 10 -1 15 7 13 17 -4 28 44 36 163 7 103 -6 207 -33 268 l-17 36
-7 -130 c-7 -130 -16 -180 -47 -265 -85 -233 -321 -479 -652 -679 -56 -34 -99
-57 -96 -52 3 4 54 39 113 75 312 194 524 428 605 669 28 85 30 98 26 211 -7
196 -57 305 -223 490 -91 100 -108 126 -84 126 43 0 -172 137 -342 219 -170
81 -369 155 -369 136z m870 -1382 c-16 -27 -43 -64 -59 -83 -19 -22 -11 -5 22
47 28 45 55 82 59 82 4 1 -5 -20 -22 -46z m-5660 -549 c0 -2 -7 -4 -15 -4 -8
0 -15 4 -15 10 0 5 7 7 15 4 8 -4 15 -8 15 -10z m-110 -4 c0 -5 -2 -10 -4 -10
-3 0 -8 5 -11 10 -3 6 -1 10 4 10 6 0 11 -4 11 -10z m104 -25 c19 -13 25 -13
29 -3 4 8 6 7 6 -4 1 -10 6 -18 12 -18 5 0 8 -4 4 -9 -8 -14 79 -63 99 -55 10
4 16 1 16 -9 0 -8 9 -17 20 -20 11 -3 19 -11 18 -18 -2 -7 29 -29 67 -49 91
-47 315 -147 349 -156 14 -3 26 -12 26 -19 0 -7 12 -15 28 -18 15 -4 70 -18
122 -32 93 -25 413 -91 658 -135 102 -18 122 -25 120 -39 -5 -25 -211 -21
-356 8 -106 20 -332 80 -377 100 -58 25 -124 55 -158 72 -22 10 -46 19 -55 19
-17 0 -153 43 -207 65 -16 6 -46 18 -65 25 -19 7 -39 17 -44 22 -6 4 -18 8
-28 8 -10 0 -18 5 -18 10 0 6 -5 10 -10 10 -9 0 -149 86 -175 108 -53 43 -125
92 -136 92 -12 0 -12 2 0 9 12 8 10 12 -12 22 -26 12 -32 20 -22 31 10 9 64
-1 89 -17z"/>
<path d="M3730 3250 c0 -5 5 -10 11 -10 5 0 7 5 4 10 -3 6 -8 10 -11 10 -2 0
-4 -4 -4 -10z"/>
<path d="M5051 5096 c-7 -9 -21 -16 -30 -16 -12 -1 -11 -5 8 -20 23 -20 23
-20 2 -20 -12 0 -21 -4 -21 -9 0 -4 11 -6 24 -4 27 6 46 40 37 66 -6 17 -8 17
-20 3z"/>
<path d="M2529 5044 c-19 -36 -69 -76 -86 -70 -8 3 -12 2 -8 -3 3 -5 -8 -12
-24 -16 -35 -8 -43 -17 -61 -73 -10 -33 -21 -47 -49 -60 -19 -9 -47 -15 -61
-14 -37 3 -48 -8 -53 -60 -4 -35 -2 -45 8 -42 8 3 12 -3 11 -18 -1 -18 -7 -22
-26 -20 -14 1 -26 7 -28 12 -4 11 -32 13 -56 4 -21 -8 -21 -54 -1 -54 8 0 15
-6 15 -14 0 -17 39 -65 40 -48 0 6 7 12 15 12 17 0 20 -16 5 -25 -14 -9 -2
-25 18 -24 11 0 12 2 4 6 -6 2 -10 9 -7 14 4 5 12 3 19 -4 8 -6 11 -16 8 -21
-3 -5 0 -6 6 -2 7 4 12 15 12 24 0 15 2 15 10 2 5 -8 7 -22 5 -31 -3 -9 1 -21
8 -28 12 -9 14 -6 10 16 -3 24 -2 25 6 8 8 -17 10 -17 10 -3 1 9 -3 20 -9 23
-5 3 -10 20 -10 37 0 25 3 28 14 19 8 -7 12 -21 8 -34 -4 -18 -3 -20 9 -11 23
18 57 23 63 9 3 -9 -2 -11 -17 -7 -18 4 -15 -1 13 -26 41 -38 55 -40 64 -9 7
21 7 21 16 2 9 -19 9 -19 16 3 4 16 9 20 14 12 4 -7 13 -9 19 -6 6 4 9 11 6
16 -6 10 23 35 44 35 8 0 20 9 26 21 9 18 12 19 24 7 10 -11 16 -12 24 -4 6 6
19 11 29 11 10 0 18 5 18 10 0 6 11 10 24 10 13 0 26 7 30 15 3 8 12 15 19 15
8 0 20 7 27 15 7 9 21 14 30 13 9 -2 24 3 33 11 10 7 17 10 17 5 0 -5 4 -3 9
4 4 7 18 14 29 15 16 1 22 8 22 27 0 14 5 32 11 40 8 12 10 9 6 -11 -4 -28 11
-30 45 -5 15 11 16 18 7 44 -9 26 -8 35 4 47 20 19 31 19 23 -1 -3 -8 -2 -12
4 -9 6 3 10 -1 10 -10 0 -17 37 -35 58 -28 6 3 12 12 12 21 0 12 3 13 11 5 8
-8 19 -6 41 7 17 10 36 16 44 13 30 -11 -11 93 -53 135 l-35 34 -28 -33 c-16
-19 -29 -28 -30 -21 0 6 -7 12 -16 12 -8 0 -13 -4 -10 -9 3 -5 -2 -8 -12 -7
-10 0 -16 -6 -16 -16 2 -21 -12 -24 -19 -5 -3 6 -6 -3 -6 -22 -1 -33 -2 -34
-17 -15 -15 18 -15 18 -10 -11 3 -16 3 -24 0 -17 -7 15 -54 16 -54 1 0 -7 -8
-1 -19 12 -10 13 -18 27 -17 31 0 4 -9 15 -21 23 -13 9 -23 23 -23 31 0 8 -5
12 -10 9 -6 -4 -10 -12 -9 -18 4 -34 -1 -36 -48 -20 -27 9 -54 17 -61 19 -7 2
-15 11 -19 20 -8 21 -64 73 -79 74 -6 0 -17 -12 -25 -26z"/>
<path d="M4981 5056 c-7 -8 -8 -17 -3 -20 6 -3 13 1 16 10 9 23 2 28 -13 10z"/>
<path d="M3173 5025 c-8 -23 4 -83 22 -111 16 -25 45 -23 45 3 0 9 6 13 15 9
8 -3 29 8 47 25 32 29 32 30 8 26 -14 -2 -19 -2 -12 0 6 3 12 9 12 15 0 5 -6
8 -14 5 -7 -3 -23 1 -34 8 -10 8 -22 12 -24 9 -3 -2 -11 2 -18 11 -16 19 -39
19 -47 0z"/>
<path d="M3435 5020 c-3 -5 -1 -10 4 -10 6 0 11 5 11 10 0 6 -2 10 -4 10 -3 0
-8 -4 -11 -10z"/>
<path d="M3354 5004 c3 -9 6 -21 7 -27 0 -7 4 -3 8 8 9 22 5 35 -11 35 -5 0
-7 -7 -4 -16z"/>
<path d="M5164 4964 c-18 -14 -18 -15 4 -4 12 6 22 13 22 15 0 8 -5 6 -26 -11z"/>
<path d="M5073 4913 c-35 -19 -63 -40 -63 -45 0 -6 8 -5 18 4 9 8 38 27 65 42
26 15 47 29 47 31 0 7 3 8 -67 -32z"/>
<path d="M5114 4884 c-18 -14 -18 -15 4 -4 12 6 22 13 22 15 0 8 -5 6 -26 -11z"/>
<path d="M2981 4804 c0 -11 3 -14 6 -6 3 7 2 16 -1 19 -3 4 -6 -2 -5 -13z"/>
<path d="M4552 4766 c2 -15 8 -26 13 -26 15 0 12 43 -3 48 -10 3 -13 -4 -10
-22z"/>
<path d="M4760 4779 c0 -5 5 -7 10 -4 6 3 10 8 10 11 0 2 -4 4 -10 4 -5 0 -10
-5 -10 -11z"/>
<path d="M4915 4770 c-3 -5 -1 -10 4 -10 6 0 11 5 11 10 0 6 -2 10 -4 10 -3 0
-8 -4 -11 -10z"/>
<path d="M4788 4704 c-31 -16 -35 -29 -14 -37 10 -4 13 -1 10 8 -6 15 29 38
41 27 5 -4 5 -1 1 6 -4 6 -8 12 -9 12 -1 -1 -14 -8 -29 -16z"/>
<path d="M1738 4685 l-27 -25 22 -37 c26 -45 28 -74 5 -91 -23 -17 -22 -41 1
-69 25 -30 32 -29 65 6 l29 30 -13 68 c-7 37 -16 73 -20 78 -4 6 -10 22 -14
38 -8 33 -14 34 -48 2z"/>
<path d="M4693 4646 c-24 -11 -31 -26 -12 -26 5 0 7 -4 4 -10 -3 -5 -1 -10 4
-10 6 0 11 9 11 20 0 13 7 20 20 20 11 0 20 5 20 10 0 12 -18 11 -47 -4z"/>
<path d="M4635 4620 c-7 -12 2 -30 15 -30 5 0 8 9 7 20 -1 21 -12 26 -22 10z"/>
<path d="M5572 4585 c-2 -27 13 -51 22 -36 4 6 3 11 -3 11 -5 0 -12 10 -14 23
-4 19 -4 19 -5 2z"/>
<path d="M4360 4479 c-118 -60 -258 -128 -310 -151 -52 -22 -126 -55 -165 -73
-275 -125 -517 -219 -925 -359 -41 -14 -74 -30 -73 -35 2 -6 -3 -8 -11 -5 -8
3 -105 -22 -217 -55 -112 -33 -247 -72 -299 -85 -60 -16 -78 -23 -47 -20 30 4
47 2 47 -4 0 -7 23 -3 58 10 31 11 64 21 72 23 8 1 22 5 30 8 8 3 38 12 65 20
28 8 88 26 135 40 47 14 105 31 130 37 25 7 49 15 54 18 5 3 91 33 190 67 235
81 382 134 426 152 59 25 74 31 109 42 19 6 36 9 38 7 5 -4 -24 -22 -42 -26
-5 -1 -19 -6 -30 -11 -16 -6 -17 -8 -3 -8 27 -1 112 29 128 46 13 14 13 15 -2
10 -22 -8 -24 8 -3 17 8 3 15 1 15 -4 0 -6 8 -10 18 -10 13 -1 11 -6 -11 -25
-15 -14 -23 -25 -17 -25 7 0 24 13 38 28 15 16 38 34 51 41 17 10 20 15 11 21
-9 6 -10 12 -1 26 9 16 10 17 11 2 0 -9 6 -18 13 -21 18 -6 97 35 97 50 0 7
11 13 23 13 13 0 31 8 41 19 10 11 25 16 40 14 13 -3 30 2 39 12 9 9 21 14 26
11 5 -3 14 1 20 8 10 12 8 13 -8 9 -12 -3 -21 -1 -21 6 0 5 6 8 13 6 7 -3 30
4 52 15 21 11 46 20 55 20 22 0 61 29 58 43 -2 7 2 12 7 12 6 0 9 -4 7 -8 -1
-4 7 -3 17 3 11 6 24 9 29 8 5 -2 24 8 42 22 18 14 35 25 39 25 15 1 131 61
131 68 0 5 -6 5 -12 1 -8 -4 -9 -3 -5 2 5 5 14 9 20 9 28 1 77 17 77 26 0 12
-17 12 -25 -1 -3 -5 -13 -10 -22 -10 -13 0 -13 3 -3 15 7 8 9 15 4 14 -5 0
-106 -50 -224 -110z m-485 -259 c3 -5 1 -10 -4 -10 -6 0 -11 5 -11 10 0 6 2
10 4 10 3 0 8 -4 11 -10z m-84 -64 c-7 -8 -21 -12 -33 -8 -21 5 -21 6 -2 13
33 13 48 11 35 -5z"/>
<path d="M1580 4539 c-72 -47 -73 -49 -59 -103 10 -42 13 -45 28 -33 9 8 24
17 34 20 9 4 17 13 17 21 0 20 49 76 66 76 27 0 11 34 -21 43 -12 3 -37 -6
-65 -24z"/>
<path d="M2125 4530 c3 -5 8 -10 11 -10 2 0 4 5 4 10 0 6 -5 10 -11 10 -5 0
-7 -4 -4 -10z"/>
<path d="M9204 4453 c4 -43 2 -83 -5 -100 -24 -63 -15 -113 20 -113 6 0 11 -5
11 -10 0 -6 6 -10 13 -8 30 6 63 -13 81 -47 16 -28 22 -33 33 -23 11 9 17 9
24 -3 7 -11 9 -9 9 9 0 12 5 22 10 22 9 0 14 -15 11 -33 -1 -5 4 -7 11 -5 7 3
13 12 13 21 0 8 3 18 6 22 11 10 21 -82 15 -132 -4 -35 -3 -41 3 -23 17 47 12
175 -9 242 -20 65 -71 128 -104 128 -8 0 -18 5 -21 10 -4 6 -10 8 -15 5 -4 -3
-32 21 -60 52 l-52 58 6 -72z"/>
<path d="M3480 4460 c-8 -5 -10 -10 -5 -10 6 0 17 5 25 10 8 5 11 10 5 10 -5
0 -17 -5 -25 -10z"/>
<path d="M4468 4463 c7 -3 16 -2 19 1 4 3 -2 6 -13 5 -11 0 -14 -3 -6 -6z"/>
<path d="M3430 4440 c-8 -5 -10 -10 -5 -10 6 0 17 5 25 10 8 5 11 10 5 10 -5
0 -17 -5 -25 -10z"/>
<path d="M3365 4415 c-25 -12 -26 -14 -5 -9 28 7 60 23 45 23 -5 0 -23 -6 -40
-14z"/>
<path d="M1409 4398 c-15 -11 -15 -15 8 -50 14 -21 29 -38 34 -38 4 0 21 12
38 26 32 27 42 50 16 40 -8 -3 -20 1 -28 8 -20 20 -50 26 -68 14z"/>
<path d="M3225 4364 c-49 -19 -216 -77 -370 -129 -154 -52 -275 -95 -268 -95
31 -1 724 237 741 255 11 11 -16 2 -103 -31z"/>
<path d="M4302 4325 c0 -16 2 -22 5 -12 2 9 2 23 0 30 -3 6 -5 -1 -5 -18z"/>
<path d="M9160 4318 c0 -19 2 -20 10 -8 13 19 13 30 0 30 -5 0 -10 -10 -10
-22z"/>
<path d="M1296 4288 c-10 -21 -17 -40 -15 -41 2 -1 19 -15 38 -32 l33 -30 -7
50 c-4 27 -12 60 -18 71 -12 21 -13 20 -31 -18z"/>
<path d="M7868 4309 c-26 -4 -52 -10 -57 -14 -28 -17 -129 -24 -190 -14 -40 7
-66 8 -70 2 -16 -24 -74 -33 -133 -21 -46 10 -65 9 -94 -1 -20 -7 -74 -12
-122 -12 -48 1 -121 -4 -162 -11 l-75 -12 50 -9 c55 -8 126 -16 430 -48 266
-27 456 -55 724 -105 46 -9 95 -12 110 -8 14 4 35 8 45 9 22 2 58 -24 50 -37
-3 -4 7 -8 21 -8 14 0 24 4 21 9 -4 5 0 12 6 14 8 4 7 6 -4 6 -9 1 -20 11 -24
24 -4 12 -12 25 -18 29 -6 4 -12 12 -12 18 -1 5 -2 15 -3 21 0 5 -5 8 -10 5
-5 -3 -24 2 -42 12 -33 16 -33 17 -9 20 42 5 72 34 65 63 -4 15 -14 25 -28 26
-70 7 -101 14 -109 25 -6 9 -10 10 -15 2 -5 -6 -18 -10 -30 -9 -13 1 -23 -2
-23 -7 0 -5 -5 -6 -10 -3 -6 4 -18 1 -26 -6 -12 -10 -13 -9 -8 4 5 14 1 15
-24 8 -34 -10 -82 -3 -82 11 0 6 -6 8 -14 5 -7 -3 -18 -1 -25 6 -13 13 -41 14
-103 6z"/>
<path d="M5168 4303 c7 -3 16 -2 19 1 4 3 -2 6 -13 5 -11 0 -14 -3 -6 -6z"/>
<path d="M9091 4268 c-1 -21 6 -43 15 -52 18 -18 34 -21 34 -6 0 6 -4 10 -8
10 -5 0 -7 14 -4 30 3 24 1 29 -11 24 -10 -3 -17 1 -20 13 -3 10 -5 1 -6 -19z"/>
<path d="M4200 4259 c0 -5 5 -7 10 -4 6 3 10 8 10 11 0 2 -4 4 -10 4 -5 0 -10
-5 -10 -11z"/>
<path d="M5080 4256 c0 -2 7 -7 16 -10 8 -3 12 -2 9 4 -6 10 -25 14 -25 6z"/>
<path d="M5060 4246 c0 -2 8 -10 18 -17 15 -13 16 -12 3 4 -13 16 -21 21 -21
13z"/>
<path d="M6660 4231 c-45 -5 -50 -7 -30 -13 38 -11 170 -10 170 2 0 6 9 10 21
10 11 0 17 -4 14 -10 -4 -6 11 -10 39 -10 36 0 44 3 40 15 -5 12 -25 15 -103
13 -53 -1 -121 -4 -151 -7z"/>
<path d="M4116 4215 c-11 -8 -15 -15 -9 -15 6 0 16 7 23 15 16 19 11 19 -14 0z"/>
<path d="M4485 4219 c-4 -6 -5 -12 -2 -15 2 -3 7 2 10 11 7 17 1 20 -8 4z"/>
<path d="M4700 4210 c-9 -6 -10 -10 -3 -10 6 0 15 5 18 10 8 12 4 12 -15 0z"/>
<path d="M4055 4200 c-3 -5 -2 -10 4 -10 5 0 13 5 16 10 3 6 2 10 -4 10 -5 0
-13 -4 -16 -10z"/>
<path d="M3860 4161 c0 -5 -8 -12 -17 -14 -14 -4 -13 -5 3 -6 12 0 24 6 28 14
3 8 1 15 -4 15 -6 0 -10 -4 -10 -9z"/>
<path d="M3930 4160 c0 -13 18 -22 24 -11 3 5 -1 11 -9 15 -8 3 -15 1 -15 -4z"/>
<path d="M2475 4115 c-39 -14 -40 -14 -5 -8 41 7 82 22 60 22 -8 0 -33 -7 -55
-14z"/>
<path d="M4850 4121 c0 -6 4 -13 10 -16 6 -3 7 1 4 9 -7 18 -14 21 -14 7z"/>
<path d="M4546 4083 c-6 -14 -5 -15 5 -6 7 7 10 15 7 18 -3 3 -9 -2 -12 -12z"/>
<path d="M2368 4083 c6 -2 18 -2 25 0 6 3 1 5 -13 5 -14 0 -19 -2 -12 -5z"/>
<path d="M960 4071 c0 -12 47 -61 59 -61 22 0 22 23 0 46 -22 23 -59 33 -59
15z"/>
<path d="M3801 4071 c-7 -5 -9 -11 -4 -14 4 -3 17 1 28 9 21 16 0 20 -24 5z"/>
<path d="M2298 4063 c7 -3 16 -2 19 1 4 3 -2 6 -13 5 -11 0 -14 -3 -6 -6z"/>
<path d="M3650 4060 c-8 -5 -10 -10 -5 -10 6 0 17 5 25 10 8 5 11 10 5 10 -5
0 -17 -5 -25 -10z"/>
<path d="M3696 4058 c3 -4 9 -8 15 -8 5 0 9 4 9 8 0 5 -7 9 -15 9 -8 0 -12 -4
-9 -9z"/>
<path d="M3765 4060 c3 -5 8 -10 11 -10 2 0 4 5 4 10 0 6 -5 10 -11 10 -5 0
-7 -4 -4 -10z"/>
<path d="M3895 4060 c-3 -5 -2 -10 4 -10 5 0 13 5 16 10 3 6 2 10 -4 10 -5 0
-13 -4 -16 -10z"/>
<path d="M2248 4053 c6 -2 18 -2 25 0 6 3 1 5 -13 5 -14 0 -19 -2 -12 -5z"/>
<path d="M3585 4049 c-11 -17 1 -21 15 -4 8 9 8 15 2 15 -6 0 -14 -5 -17 -11z"/>
<path d="M2015 4004 c-310 -67 -662 -92 -825 -59 -47 9 -105 26 -129 36 -25
11 -48 16 -53 11 -14 -14 26 -55 76 -80 44 -22 50 -23 163 -13 65 5 161 13
213 16 153 10 323 33 515 71 166 32 218 46 169 43 -10 -1 -68 -12 -129 -25z"/>
<path d="M3414 4005 c-10 -8 -27 -15 -36 -15 -28 0 -21 -15 6 -15 13 0 22 3
20 7 -2 3 10 11 26 17 17 5 30 12 30 15 0 11 -26 6 -46 -9z"/>
<path d="M4470 4010 c-8 -5 -11 -12 -8 -16 4 -3 14 1 23 10 18 17 9 21 -15 6z"/>
<path d="M3580 4002 c0 -17 21 -25 31 -13 5 6 6 9 3 6 -4 -3 -13 0 -21 6 -9 8
-13 8 -13 1z"/>
<path d="M3453 3987 c-13 -5 -23 -14 -23 -19 0 -5 5 -6 11 -3 6 4 22 10 37 14
18 5 22 9 12 13 -8 3 -25 1 -37 -5z"/>
<path d="M3805 3990 c-3 -5 -1 -10 4 -10 6 0 11 5 11 10 0 6 -2 10 -4 10 -3 0
-8 -4 -11 -10z"/>
<path d="M3840 3979 c0 -5 5 -7 10 -4 6 3 10 8 10 11 0 2 -4 4 -10 4 -5 0 -10
-5 -10 -11z"/>
<path d="M3990 3980 c-9 -6 -10 -10 -3 -10 6 0 15 5 18 10 8 12 4 12 -15 0z"/>
<path d="M3315 3970 c-10 -16 14 -40 41 -40 12 0 26 -4 29 -10 3 -5 14 -10 23
-9 12 0 11 3 -5 9 -13 5 -23 14 -23 21 0 6 -7 8 -16 5 -19 -7 -47 12 -38 25 3
5 3 9 0 9 -3 0 -8 -5 -11 -10z"/>
<path d="M4297 3969 c7 -7 15 -10 18 -7 3 3 -2 9 -12 12 -14 6 -15 5 -6 -5z"/>
<path d="M4399 3953 c-18 -20 -19 -23 -4 -13 32 24 47 40 37 40 -4 0 -19 -12
-33 -27z"/>
<path d="M3525 3960 c-8 -13 5 -13 25 0 13 8 13 10 -2 10 -9 0 -20 -4 -23 -10z"/>
<path d="M4166 3957 c3 -10 9 -15 12 -12 3 3 0 11 -7 18 -10 9 -11 8 -5 -6z"/>
<path d="M4248 3963 c7 -3 16 -2 19 1 4 3 -2 6 -13 5 -11 0 -14 -3 -6 -6z"/>
<path d="M3455 3950 c-16 -7 -17 -9 -3 -9 9 -1 20 4 23 9 7 11 7 11 -20 0z"/>
<path d="M3574 3953 c12 -12 58 -15 51 -3 -3 5 -18 10 -32 10 -15 0 -23 -3
-19 -7z"/>
<path d="M3398 3943 c7 -3 16 -2 19 1 4 3 -2 6 -13 5 -11 0 -14 -3 -6 -6z"/>
<path d="M4128 3943 c7 -3 16 -2 19 1 4 3 -2 6 -13 5 -11 0 -14 -3 -6 -6z"/>
<path d="M2343 3933 c9 -2 23 -2 30 0 6 3 -1 5 -18 5 -16 0 -22 -2 -12 -5z"/>
<path d="M3300 3931 c0 -5 7 -12 16 -15 14 -5 15 -4 4 9 -14 17 -20 19 -20 6z"/>
<path d="M3200 3920 c-18 -12 -2 -12 25 0 13 6 15 9 5 9 -8 0 -22 -4 -30 -9z"/>
<path d="M4215 3920 c-3 -6 1 -7 9 -4 18 7 21 14 7 14 -6 0 -13 -4 -16 -10z"/>
<path d="M4153 3913 c-24 -9 -13 -18 25 -19 20 -1 27 1 14 3 -12 2 -20 9 -17
14 7 10 -2 11 -22 2z"/>
<path d="M3160 3895 c27 -14 36 -13 25 4 -3 6 -16 11 -28 11 -21 -1 -21 -1 3
-15z"/>
<path d="M3915 3900 c-3 -5 -2 -10 4 -10 5 0 13 5 16 10 3 6 2 10 -4 10 -5 0
-13 -4 -16 -10z"/>
<path d="M4265 3900 c-3 -5 1 -10 10 -10 9 0 13 5 10 10 -3 6 -8 10 -10 10 -2
0 -7 -4 -10 -10z"/>
<path d="M4355 3900 c-3 -6 1 -7 9 -4 18 7 21 14 7 14 -6 0 -13 -4 -16 -10z"/>
<path d="M3497 3889 c7 -7 15 -10 18 -7 3 3 -2 9 -12 12 -14 6 -15 5 -6 -5z"/>
<path d="M4090 3891 c-23 -6 -23 -8 -6 -14 13 -5 25 -2 35 8 16 16 11 17 -29
6z"/>
<path d="M3240 3881 c8 -5 26 -12 40 -15 l25 -7 -25 15 c-14 9 -32 15 -40 15
-13 0 -13 -1 0 -8z"/>
<path d="M3830 3870 l-25 -20 40 16 c49 20 54 24 29 24 -10 0 -30 -9 -44 -20z"/>
<path d="M3055 3870 c-11 -5 -41 -16 -68 -26 -26 -9 -46 -18 -44 -20 2 -2 36
7 76 21 66 22 75 23 94 10 12 -8 28 -15 37 -14 8 0 3 5 -13 11 -15 5 -25 14
-21 19 7 11 -34 11 -61 -1z"/>
<path d="M3358 3873 c6 -2 18 -2 25 0 6 3 1 5 -13 5 -14 0 -19 -2 -12 -5z"/>
<path d="M3775 3870 c3 -5 12 -7 20 -3 21 7 19 13 -6 13 -11 0 -18 -4 -14 -10z"/>
<path d="M3891 3866 c-10 -12 -8 -13 8 -9 12 3 21 9 21 14 0 14 -16 11 -29 -5z"/>
<path d="M4010 3870 c-12 -8 -10 -10 8 -10 13 0 20 4 17 10 -7 12 -6 12 -25 0z"/>
<path d="M4130 3870 c-18 -12 -2 -12 25 0 13 6 15 9 5 9 -8 0 -22 -4 -30 -9z"/>
<path d="M3195 3860 c-3 -6 1 -7 9 -4 18 7 21 14 7 14 -6 0 -13 -4 -16 -10z"/>
<path d="M3400 3855 c-11 -13 -10 -14 4 -9 9 3 16 10 16 15 0 13 -6 11 -20 -6z"/>
<path d="M3521 3861 c3 -8 25 -23 50 -33 32 -13 39 -14 25 -3 -11 8 -25 15
-32 15 -7 0 -20 8 -30 17 -12 12 -16 13 -13 4z"/>
<path d="M3678 3853 c6 -2 18 -2 25 0 6 3 1 5 -13 5 -14 0 -19 -2 -12 -5z"/>
<path d="M3780 3850 c-13 -8 -12 -10 3 -10 9 0 17 5 17 10 0 12 -1 12 -20 0z"/>
<path d="M3335 3840 c3 -5 8 -10 11 -10 2 0 4 5 4 10 0 6 -5 10 -11 10 -5 0
-7 -4 -4 -10z"/>
<path d="M3940 3839 c0 -5 5 -7 10 -4 6 3 10 8 10 11 0 2 -4 4 -10 4 -5 0 -10
-5 -10 -11z"/>
<path d="M930 3824 c0 -44 21 -84 64 -124 26 -24 49 -53 52 -66 5 -18 13 -24
34 -24 27 0 88 -21 103 -36 11 -11 41 -13 252 -18 105 -2 215 0 245 4 30 4 60
4 66 -1 12 -10 54 -1 54 12 0 5 12 4 27 -2 18 -6 28 -6 33 0 3 6 26 13 50 15
25 3 88 14 140 26 52 11 115 25 140 29 25 5 40 9 33 10 -7 0 -10 8 -7 16 8 19
-2 19 -96 -5 -168 -43 -374 -70 -640 -84 -42 -3 -205 16 -260 29 -56 14 -119
52 -141 85 -23 33 -96 110 -132 139 -15 12 -17 11 -17 -5z"/>
<path d="M3880 3823 c-14 -7 -18 -13 -10 -13 17 0 47 17 40 23 -3 2 -16 -2
-30 -10z"/>
<path d="M4044 3825 c-10 -8 -14 -14 -9 -15 15 0 40 18 34 24 -3 3 -14 -1 -25
-9z"/>
<path d="M3370 3821 c0 -5 9 -11 21 -14 16 -4 18 -3 8 9 -13 16 -29 19 -29 5z"/>
<path d="M3648 3813 c-10 -2 -18 -8 -18 -13 0 -8 13 -5 70 13 19 7 -29 6 -52
0z"/>
<path d="M2830 3800 c0 -6 7 -10 15 -10 8 0 15 2 15 4 0 2 -7 6 -15 10 -8 3
-15 1 -15 -4z"/>
<path d="M3268 3803 c6 -2 18 -2 25 0 6 3 1 5 -13 5 -14 0 -19 -2 -12 -5z"/>
<path d="M3804 3795 c-18 -14 -18 -14 4 -8 12 3 22 9 22 14 0 12 -3 11 -26 -6z"/>
<path d="M2875 3790 c3 -6 -2 -10 -12 -10 -15 0 -16 -2 -3 -10 8 -5 26 -6 40
-3 14 3 22 2 18 -2 -8 -8 17 -24 57 -38 l20 -7 -20 15 c-11 9 -28 22 -38 31
-24 19 -71 38 -62 24z"/>
<path d="M3024 3792 c4 -7 12 -12 18 -12 5 0 23 -9 39 -21 16 -11 29 -17 29
-12 0 7 -18 18 -84 52 -5 2 -6 -1 -2 -7z"/>
<path d="M3131 3784 c0 -11 3 -14 6 -6 3 7 2 16 -1 19 -3 4 -6 -2 -5 -13z"/>
<path d="M3448 3793 c7 -3 16 -2 19 1 4 3 -2 6 -13 5 -11 0 -14 -3 -6 -6z"/>
<path d="M3485 3790 c-3 -5 -1 -10 4 -10 6 0 11 5 11 10 0 6 -2 10 -4 10 -3 0
-8 -4 -11 -10z"/>
<path d="M3960 3791 c-8 -6 -18 -7 -24 -4 -5 3 -6 1 -3 -5 8 -12 47 -4 47 9 0
11 -1 11 -20 0z"/>
<path d="M4025 3789 c-4 -6 -5 -12 -2 -15 2 -3 7 2 10 11 7 17 1 20 -8 4z"/>
<path d="M4210 3790 c0 -5 5 -10 11 -10 5 0 7 5 4 10 -3 6 -8 10 -11 10 -2 0
-4 -4 -4 -10z"/>
<path d="M3579 3785 c-3 -2 -20 -6 -38 -7 -18 -1 -35 -6 -37 -10 -3 -4 10 -6
28 -4 38 4 92 24 67 25 -9 1 -18 -1 -20 -4z"/>
<path d="M3450 3759 c0 -5 9 -9 20 -9 11 0 20 2 20 4 0 2 -9 6 -20 9 -11 3
-20 1 -20 -4z"/>
<path d="M3657 3749 c7 -7 15 -10 18 -7 3 3 -2 9 -12 12 -14 6 -15 5 -6 -5z"/>
<path d="M2870 3743 c8 -3 34 -14 58 -24 23 -10 42 -14 42 -9 0 8 -85 41 -104
39 -6 0 -4 -3 4 -6z"/>
<path d="M3280 3740 c0 -5 5 -10 11 -10 5 0 7 5 4 10 -3 6 -8 10 -11 10 -2 0
-4 -4 -4 -10z"/>
<path d="M3356 3731 c-4 -5 3 -7 14 -4 23 6 26 13 6 13 -8 0 -17 -4 -20 -9z"/>
<path d="M2867 3699 c7 -7 15 -10 18 -7 3 3 -2 9 -12 12 -14 6 -15 5 -6 -5z"/>
<path d="M2628 3693 c6 -2 18 -2 25 0 6 3 1 5 -13 5 -14 0 -19 -2 -12 -5z"/>
<path d="M2794 3685 c-18 -13 -18 -14 4 -8 12 3 25 9 28 14 8 14 -10 11 -32
-6z"/>
<path d="M2695 3671 c17 -10 37 -15 45 -12 11 4 9 7 -7 9 -13 2 -23 8 -23 13
0 5 -10 9 -22 9 -21 0 -21 -2 7 -19z"/>
<path d="M3040 3680 c8 -5 22 -9 30 -9 10 0 8 3 -5 9 -27 12 -43 12 -25 0z"/>
<path d="M3134 3676 c-3 -9 -11 -13 -17 -9 -6 3 -7 1 -3 -5 4 -7 13 -12 21
-12 16 0 28 27 14 35 -5 4 -12 -1 -15 -9z"/>
<path d="M3786 3675 c4 -8 8 -15 10 -15 2 0 4 7 4 15 0 8 -4 15 -10 15 -5 0
-7 -7 -4 -15z"/>
<path d="M2300 3660 c-13 -8 -13 -10 2 -10 9 0 20 5 23 10 8 13 -5 13 -25 0z"/>
<path d="M2608 3663 c7 -3 16 -2 19 1 4 3 -2 6 -13 5 -11 0 -14 -3 -6 -6z"/>
<path d="M3541 3653 c-7 -8 -10 -17 -6 -21 3 -3 9 -1 13 5 4 6 16 13 27 15 20
4 20 4 0 9 -12 3 -26 0 -34 -8z"/>
<path d="M3300 3649 c0 -11 37 -17 51 -8 11 6 11 9 -1 13 -21 6 -50 4 -50 -5z"/>
<path d="M2733 3633 c9 -14 47 -24 47 -12 0 5 -4 9 -9 9 -5 0 -17 3 -27 7 -11
4 -15 3 -11 -4z"/>
<path d="M2842 3624 c10 -10 20 -16 22 -13 3 3 -5 11 -17 18 -21 13 -21 12 -5
-5z"/>
<path d="M3260 3632 c0 -19 30 -27 43 -12 9 10 9 12 -4 7 -9 -3 -22 0 -28 6
-8 8 -11 8 -11 -1z"/>
<path d="M990 3625 c0 -28 92 -155 112 -155 3 0 5 15 6 33 1 27 -7 41 -36 69
-37 34 -82 64 -82 53z"/>
<path d="M2307 3623 c-10 -9 -9 -23 1 -23 5 0 9 7 9 15 0 17 -1 18 -10 8z"/>
<path d="M2804 3615 c8 -8 20 -15 27 -15 9 0 8 4 -1 15 -7 8 -19 15 -27 15
-12 0 -12 -2 1 -15z"/>
<path d="M3477 3606 c-17 -16 -25 -31 -21 -41 9 -22 28 -13 32 16 2 13 9 30
14 37 17 20 3 13 -25 -12z"/>
<path d="M3377 3599 c6 -23 9 -24 16 -5 3 8 0 17 -7 19 -10 4 -12 -1 -9 -14z"/>
<path d="M3623 3613 c9 -2 23 -2 30 0 6 3 -1 5 -18 5 -16 0 -22 -2 -12 -5z"/>
<path d="M2510 3599 c0 -5 5 -7 10 -4 6 3 10 8 10 11 0 2 -4 4 -10 4 -5 0 -10
-5 -10 -11z"/>
<path d="M2750 3590 c0 -5 5 -10 11 -10 5 0 7 5 4 10 -3 6 -8 10 -11 10 -2 0
-4 -4 -4 -10z"/>
<path d="M3516 3583 c-6 -14 -5 -15 5 -6 7 7 10 15 7 18 -3 3 -9 -2 -12 -12z"/>
<path d="M2325 3580 c-4 -6 -12 -7 -18 -4 -9 5 -9 4 0 -6 9 -10 15 -10 28 4 9
9 12 16 6 16 -5 0 -13 -5 -16 -10z"/>
<path d="M2638 3583 c6 -2 18 -2 25 0 6 3 1 5 -13 5 -14 0 -19 -2 -12 -5z"/>
<path d="M3415 3580 c-3 -5 -1 -10 4 -10 6 0 11 5 11 10 0 6 -2 10 -4 10 -3 0
-8 -4 -11 -10z"/>
<path d="M2060 3570 c0 -5 5 -10 11 -10 5 0 7 5 4 10 -3 6 -8 10 -11 10 -2 0
-4 -4 -4 -10z"/>
<path d="M2220 3570 c0 -5 4 -10 9 -10 6 0 13 5 16 10 3 6 -1 10 -9 10 -9 0
-16 -4 -16 -10z"/>
<path d="M2019 3561 c10 -6 6 -11 -15 -19 -16 -6 -24 -11 -17 -11 6 -1 24 4
40 10 22 8 24 12 13 19 -8 6 -19 10 -25 10 -5 0 -4 -4 4 -9z"/>
<path d="M2095 3560 c-9 -14 20 -17 44 -4 25 13 25 13 -7 12 -18 -1 -35 -4
-37 -8z"/>
<path d="M2675 3560 c3 -5 8 -10 11 -10 2 0 4 5 4 10 0 6 -5 10 -11 10 -5 0
-7 -4 -4 -10z"/>
<path d="M2997 3559 c7 -7 15 -10 18 -7 3 3 -2 9 -12 12 -14 6 -15 5 -6 -5z"/>
<path d="M3385 3560 c-3 -5 -1 -10 4 -10 6 0 11 5 11 10 0 6 -2 10 -4 10 -3 0
-8 -4 -11 -10z"/>
<path d="M2187 3546 c-4 -10 -1 -13 9 -9 15 6 19 23 5 23 -5 0 -11 -7 -14 -14z"/>
<path d="M3411 3538 c-14 -23 -14 -23 8 -4 22 20 25 26 13 26 -4 0 -13 -10
-21 -22z"/>
<path d="M2360 3546 c0 -2 7 -7 16 -10 8 -3 12 -2 9 4 -6 10 -25 14 -25 6z"/>
<path d="M2033 3530 c-42 -17 -20 -47 40 -54 40 -5 51 2 36 24 -5 8 -9 10 -9
5 0 -14 -38 -17 -46 -4 -3 6 2 17 12 24 22 17 3 19 -33 5z"/>
<path d="M2140 3530 c-13 -8 -12 -10 3 -10 11 0 27 -10 38 -22 l18 -23 1 23
c0 13 -6 22 -15 22 -8 0 -15 5 -15 10 0 13 -11 13 -30 0z"/>
<path d="M3095 3521 c-3 -5 -1 -12 5 -16 5 -3 10 1 10 9 0 18 -6 21 -15 7z"/>
<path d="M3345 3520 c-3 -5 -1 -10 4 -10 6 0 11 5 11 10 0 6 -2 10 -4 10 -3 0
-8 -4 -11 -10z"/>
<path d="M1935 3511 c11 -5 22 -7 25 -5 3 1 7 -6 7 -17 1 -10 -5 -19 -13 -19
-8 0 -14 5 -14 10 0 6 -10 10 -21 10 -18 0 -15 -4 16 -25 20 -15 40 -24 43
-20 3 3 2 5 -2 5 -3 0 0 13 9 30 21 40 20 40 -27 39 -32 0 -38 -2 -23 -8z"/>
<path d="M3377 3513 c-4 -3 -7 -11 -7 -17 0 -6 5 -5 12 2 6 6 9 14 7 17 -3 3
-9 2 -12 -2z"/>
<path d="M2885 3500 c3 -5 8 -10 11 -10 2 0 4 5 4 10 0 6 -5 10 -11 10 -5 0
-7 -4 -4 -10z"/>
<path d="M2995 3500 c3 -5 8 -10 11 -10 2 0 4 5 4 10 0 6 -5 10 -11 10 -5 0
-7 -4 -4 -10z"/>
<path d="M2533 3486 c3 -7 0 -20 -6 -27 -10 -11 -9 -11 5 0 15 11 15 41 1 41
-3 0 -3 -6 0 -14z"/>
<path d="M2860 3491 c0 -5 5 -13 10 -16 6 -3 10 -2 10 4 0 5 -4 13 -10 16 -5
3 -10 2 -10 -4z"/>
<path d="M3025 3490 c-3 -5 -1 -10 4 -10 6 0 11 5 11 10 0 6 -2 10 -4 10 -3 0
-8 -4 -11 -10z"/>
<path d="M1140 3460 c0 -20 -5 -30 -15 -30 -8 0 -15 -3 -15 -7 0 -6 23 -58 52
-120 28 -57 174 -184 211 -182 21 1 21 2 2 6 -25 6 -35 21 -35 51 0 12 -6 22
-14 22 -8 0 -14 10 -15 23 0 12 -4 44 -7 70 l-6 48 -42 -6 c-25 -4 -36 -3 -28
3 9 6 10 16 4 32 -6 15 -11 19 -16 12 -8 -14 -26 -15 -44 -3 -11 7 -11 12 -1
28 14 24 5 68 -16 77 -11 4 -15 -2 -15 -24z"/>
<path d="M3211 3474 c0 -11 3 -14 6 -6 3 7 2 16 -1 19 -3 4 -6 -2 -5 -13z"/>
<path d="M3558 3483 c7 -3 16 -2 19 1 4 3 -2 6 -13 5 -11 0 -14 -3 -6 -6z"/>
<path d="M2206 3463 c-6 -14 -5 -15 5 -6 7 7 10 15 7 18 -3 3 -9 -2 -12 -12z"/>
<path d="M2801 3471 c-10 -7 -10 -10 -1 -16 7 -4 15 -3 19 2 3 6 13 13 21 16
11 4 9 6 -5 6 -11 0 -26 -3 -34 -8z"/>
<path d="M3656 3471 c-5 -8 174 -162 198 -170 6 -2 -4 13 -23 32 -19 20 -37
34 -41 32 -4 -3 -33 22 -64 55 -61 64 -62 65 -70 51z"/>
<path d="M2556 3453 c-6 -14 -5 -15 5 -6 7 7 10 15 7 18 -3 3 -9 -2 -12 -12z"/>
<path d="M2930 3459 c0 -5 5 -7 10 -4 6 3 10 8 10 11 0 2 -4 4 -10 4 -5 0 -10
-5 -10 -11z"/>
<path d="M3306 3457 c3 -10 9 -15 12 -12 3 3 0 11 -7 18 -10 9 -11 8 -5 -6z"/>
<path d="M2020 3452 c0 -4 5 -14 10 -22 7 -12 10 -12 10 -1 0 8 6 11 16 7 8
-3 13 -2 10 3 -7 11 -46 22 -46 13z"/>
<path d="M2086 3452 c6 -4 14 -16 19 -27 8 -19 8 -19 13 -1 2 10 -2 22 -10 27
-16 11 -38 12 -22 1z"/>
<path d="M2447 3453 c-4 -7 -3 -15 3 -18 8 -5 7 -11 -1 -21 -10 -12 -9 -13 5
-8 18 7 18 10 7 38 -5 13 -10 16 -14 9z"/>
<path d="M1834 3415 c0 -19 2 -32 5 -30 2 3 10 0 17 -5 9 -8 12 -1 11 30 -1
24 -4 35 -9 27 -6 -9 -10 -9 -16 0 -5 8 -8 -1 -8 -22z"/>
<path d="M2776 3435 c4 -8 10 -15 15 -15 4 0 6 7 3 15 -4 8 -10 15 -15 15 -4
0 -6 -7 -3 -15z"/>
<path d="M2893 3433 c-15 -5 -17 -23 -4 -23 5 0 11 7 15 15 3 8 4 15 3 14 -1
0 -8 -3 -14 -6z"/>
<path d="M1230 3415 c0 -8 2 -15 4 -15 2 0 6 7 10 15 3 8 1 15 -4 15 -6 0 -10
-7 -10 -15z"/>
<path d="M3005 3420 c-3 -5 -1 -10 4 -10 6 0 11 5 11 10 0 6 -2 10 -4 10 -3 0
-8 -4 -11 -10z"/>
<path d="M3438 3420 c-1 -5 -43 -24 -93 -41 -103 -36 -117 -44 -58 -35 29 4
43 2 47 -7 3 -6 4 -4 3 6 -1 13 11 23 48 36 28 10 58 21 68 26 9 4 17 3 17 -1
0 -5 14 -25 31 -44 30 -33 30 -33 14 -5 -21 36 -55 75 -66 75 -4 0 -9 -4 -11
-10z"/>
<path d="M1700 3396 c0 -9 5 -16 10 -16 6 0 10 4 10 9 0 6 -4 13 -10 16 -5 3
-10 -1 -10 -9z"/>
<path d="M2130 3381 c0 -17 4 -33 10 -36 6 -4 7 6 4 25 -4 17 -2 30 4 30 11 0
22 -33 22 -67 0 -13 4 -23 9 -23 19 0 19 16 0 58 -23 49 -49 56 -49 13z"/>
<path d="M2023 3338 c2 -58 27 -121 42 -106 3 3 -1 11 -10 18 -14 11 -13 14 2
26 17 12 17 14 2 26 -20 15 -35 58 -21 58 6 0 13 -6 15 -12 3 -7 6 -1 6 14 1
22 -3 26 -16 21 -11 -4 -14 -3 -9 5 4 7 3 12 -3 12 -6 0 -9 -25 -8 -62z"/>
<path d="M2230 3390 c0 -5 5 -10 10 -10 6 0 10 5 10 10 0 6 -4 10 -10 10 -5 0
-10 -4 -10 -10z"/>
<path d="M2850 3385 c-10 -12 -10 -15 4 -15 9 0 16 7 16 15 0 8 -2 15 -4 15
-2 0 -9 -7 -16 -15z"/>
<path d="M2890 3385 c-16 -19 -10 -19 26 0 25 13 26 15 8 15 -12 0 -27 -7 -34
-15z"/>
<path d="M2208 3365 c2 -14 8 -25 12 -25 10 0 1 38 -10 45 -4 2 -5 -7 -2 -20z"/>
<path d="M2565 3355 c12 -82 17 -97 28 -86 7 7 7 14 -1 24 -7 8 -10 16 -7 18
2 3 -3 23 -11 44 l-15 40 6 -40z"/>
<path d="M3450 3381 c0 -6 4 -13 10 -16 6 -3 7 1 4 9 -7 18 -14 21 -14 7z"/>
<path d="M3031 3364 c0 -11 3 -14 6 -6 3 7 2 16 -1 19 -3 4 -6 -2 -5 -13z"/>
<path d="M3060 3373 c8 -3 25 -15 38 -26 12 -11 22 -16 22 -11 0 15 -39 44
-58 43 -13 0 -14 -2 -2 -6z"/>
<path d="M3175 3369 c-4 -6 -5 -12 -2 -15 2 -3 7 2 10 11 7 17 1 20 -8 4z"/>
<path d="M1816 3355 c-9 -26 -7 -32 5 -12 6 10 9 21 6 23 -2 3 -7 -2 -11 -11z"/>
<path d="M2800 3360 c-8 -5 -10 -10 -5 -10 6 0 17 5 25 10 8 5 11 10 5 10 -5
0 -17 -5 -25 -10z"/>
<path d="M3000 3350 c0 -5 5 -10 11 -10 5 0 7 5 4 10 -3 6 -8 10 -11 10 -2 0
-4 -4 -4 -10z"/>
<path d="M1864 3339 c-3 -6 -1 -16 5 -22 8 -8 11 -5 11 11 0 24 -5 28 -16 11z"/>
<path d="M3050 3339 c0 -5 5 -7 10 -4 6 3 10 8 10 11 0 2 -4 4 -10 4 -5 0 -10
-5 -10 -11z"/>
<path d="M2704 3324 c-19 -15 -19 -15 1 -6 11 5 27 12 35 15 13 5 13 6 -1 6
-8 1 -24 -6 -35 -15z"/>
<path d="M2880 3325 c0 -9 6 -12 15 -9 8 4 12 10 9 15 -8 14 -24 10 -24 -6z"/>
<path d="M2307 3319 c7 -7 15 -10 18 -7 3 3 -2 9 -12 12 -14 6 -15 5 -6 -5z"/>
<path d="M2608 3323 c7 -3 16 -2 19 1 4 3 -2 6 -13 5 -11 0 -14 -3 -6 -6z"/>
<path d="M2222 3311 c-11 -6 -9 -9 6 -13 15 -4 19 -2 15 8 -6 16 -4 16 -21 5z"/>
<path d="M2446 3294 c-5 -14 -4 -15 9 -4 17 14 19 20 6 20 -5 0 -12 -7 -15
-16z"/>
<path d="M2116 3291 c-4 -7 -5 -15 -2 -18 9 -9 19 4 14 18 -4 11 -6 11 -12 0z"/>
<path d="M2360 3290 c8 -5 22 -9 30 -9 10 0 8 3 -5 9 -27 12 -43 12 -25 0z"/>
<path d="M2978 3293 c7 -3 16 -2 19 1 4 3 -2 6 -13 5 -11 0 -14 -3 -6 -6z"/>
<path d="M9084 3281 c-41 -25 -276 -144 -334 -170 -139 -60 -286 -139 -277
-148 5 -4 171 61 264 103 28 13 54 24 56 24 3 0 43 23 90 50 47 28 88 50 91
50 6 0 133 85 151 101 17 16 -9 9 -41 -10z"/>
<path d="M1635 3280 c-3 -5 -1 -10 4 -10 6 0 11 5 11 10 0 6 -2 10 -4 10 -3 0
-8 -4 -11 -10z"/>
<path d="M1836 3281 c-3 -5 0 -13 7 -19 10 -8 13 -6 13 9 0 20 -11 25 -20 10z"/>
<path d="M1996 3271 c-4 -6 2 -19 14 -31 24 -24 25 -21 6 15 -8 15 -17 22 -20
16z"/>
<path d="M2842 3260 c-21 -12 -29 -21 -21 -25 6 -4 15 -2 19 5 4 7 13 9 20 5
8 -5 11 -4 6 3 -3 6 2 15 11 21 32 19 -1 10 -35 -9z"/>
<path d="M1903 3232 c10 -10 15 -21 12 -24 -3 -3 2 -11 10 -18 14 -11 14 -10
6 14 -6 14 -7 26 -3 26 10 0 -21 20 -32 20 -5 0 -2 -8 7 -18z"/>
<path d="M2200 3230 c0 -5 5 -10 11 -10 5 0 7 5 4 10 -3 6 -8 10 -11 10 -2 0
-4 -4 -4 -10z"/>
<path d="M2265 3215 c22 -14 47 -25 55 -25 8 1 -7 12 -35 25 -63 31 -71 31
-20 0z"/>
<path d="M2591 3230 c0 -8 4 -24 9 -35 5 -13 9 -14 9 -5 0 8 -4 24 -9 35 -5
13 -9 14 -9 5z"/>
<path d="M2476 3217 c65 -37 69 -39 39 -13 -16 14 -37 25 -45 25 -10 1 -8 -4
6 -12z"/>
<path d="M2750 3220 c0 -5 5 -10 10 -10 6 0 10 5 10 10 0 6 -4 10 -10 10 -5 0
-10 -4 -10 -10z"/>
<path d="M1687 3196 c-16 -13 -16 -14 9 -20 31 -8 37 -5 28 18 -7 19 -13 20
-37 2z"/>
<path d="M2070 3200 c0 -5 5 -10 11 -10 5 0 7 5 4 10 -3 6 -8 10 -11 10 -2 0
-4 -4 -4 -10z"/>
<path d="M2190 3195 c0 -2 10 -10 23 -16 20 -11 21 -11 8 4 -13 16 -31 23 -31
12z"/>
<path d="M2345 3179 c3 -4 -1 -10 -7 -12 -7 -3 5 -6 27 -7 41 -2 62 -5 103
-15 15 -4 21 -2 17 5 -3 5 -15 10 -26 10 -11 0 -17 5 -14 10 3 6 -2 10 -12 11
-10 0 -35 1 -55 3 -21 2 -35 -1 -33 -5z"/>
<path d="M1546 3164 c-8 -22 -4 -25 11 -9 7 8 9 16 4 19 -5 3 -12 -1 -15 -10z"/>
<path d="M2050 3164 c0 -8 5 -12 10 -9 6 3 16 3 23 -2 20 -13 77 -31 72 -23
-6 10 -83 50 -95 50 -6 0 -10 -7 -10 -16z"/>
<path d="M3392 3160 c0 -14 2 -19 5 -12 2 6 2 18 0 25 -3 6 -5 1 -5 -13z"/>
<path d="M3475 3135 c14 -27 25 -56 25 -63 0 -7 6 -15 14 -18 9 -3 12 -12 9
-21 -4 -10 -2 -14 4 -10 12 7 87 -62 78 -71 -3 -3 -12 4 -21 17 -9 13 -22 20
-32 17 -11 -3 -26 7 -42 28 -14 19 -28 30 -31 25 -8 -13 -49 -20 -49 -8 0 5
-12 9 -26 9 -21 0 -25 4 -19 18 5 13 4 14 -6 5 -10 -10 -9 -15 0 -27 10 -12 9
-19 -8 -37 l-20 -22 4 21 c2 12 -3 34 -11 49 l-16 28 4 -32 c3 -21 0 -33 -7
-33 -7 0 -11 -11 -10 -27 2 -16 6 -59 10 -98 16 -169 61 -356 108 -458 14 -29
63 -97 109 -152 81 -96 243 -255 259 -255 5 0 13 10 20 22 10 18 9 20 -5 15
-22 -9 -20 2 6 22 19 16 19 18 4 24 -9 4 -15 3 -12 -2 3 -5 -1 -12 -10 -15
-12 -4 -15 -2 -10 9 4 10 -1 15 -15 15 -11 0 -17 5 -14 10 3 6 3 16 -2 23 -8
12 -12 28 -15 60 -2 14 -8 16 -32 11 -25 -5 -28 -4 -21 12 4 11 7 27 7 37 -1
14 4 16 20 11 14 -4 18 -2 14 5 -4 6 -19 11 -33 11 -20 0 -24 -4 -20 -20 3
-12 1 -18 -5 -14 -6 4 -15 0 -20 -7 -6 -10 -7 -6 -2 11 4 14 14 30 23 37 10 8
12 12 4 13 -7 0 -13 9 -13 20 0 11 -4 20 -8 20 -14 0 -7 41 9 51 11 7 10 11
-8 24 -26 18 -31 40 -8 31 17 -6 20 5 6 20 -5 5 -11 20 -13 33 -1 14 -9 26
-16 27 -7 1 -8 0 -2 -3 15 -7 12 -35 -2 -31 -7 3 -13 17 -14 31 -1 14 3 24 7
21 5 -3 9 1 9 9 0 8 -6 17 -13 20 -20 7 -41 -8 -32 -23 5 -9 4 -11 -3 -6 -16
10 -15 22 3 40 9 9 11 17 5 21 -5 3 -11 30 -12 58 -1 50 -2 51 -5 10 -2 -24
-8 -43 -13 -43 -11 0 -6 90 6 98 5 4 9 14 8 22 -1 23 -20 65 -28 63 -8 -4 -46
34 -39 40 9 9 -17 47 -32 47 -8 0 -15 4 -15 10 0 5 7 7 15 4 11 -5 13 -2 9 10
-5 12 -2 15 10 10 9 -3 16 -1 16 5 0 6 -14 10 -31 9 -19 -2 -34 2 -36 10 -3 7
4 12 16 12 11 0 23 5 26 10 9 14 25 12 20 -2 -3 -7 8 -22 24 -33 16 -10 28
-22 25 -27 -5 -7 35 -48 47 -48 11 0 19 28 13 45 -11 27 -13 28 124 -92 65
-57 45 -28 -29 43 -62 59 -182 201 -242 284 -9 14 -6 3 8 -25z m-55 -109 c0
-3 -4 -8 -10 -11 -5 -3 -10 -1 -10 4 0 6 5 11 10 11 6 0 10 -2 10 -4z m60 -16
c-11 -20 -50 -28 -50 -11 0 5 10 7 22 3 13 -3 19 -1 15 6 -6 8 1 16 21 21 1 1
-2 -8 -8 -19z m-45 -80 c3 -5 1 -10 -4 -10 -6 0 -11 5 -11 10 0 6 2 10 4 10 3
0 8 -4 11 -10z m82 -106 c15 -15 27 -31 25 -37 -2 -5 2 -13 9 -17 6 -4 9 -14
6 -21 -3 -9 -10 -3 -18 17 -9 19 -19 29 -28 26 -9 -3 -11 0 -6 7 4 7 -1 21
-11 32 -25 28 -10 23 23 -7z m23 -85 c0 -6 -4 -7 -10 -4 -5 3 -10 11 -10 16 0
6 5 7 10 4 6 -3 10 -11 10 -16z m89 -248 c12 -8 11 -12 -4 -28 -18 -17 -19
-17 -12 1 5 12 3 23 -5 28 -7 4 -8 8 -3 8 6 0 16 -4 24 -9z m31 -80 c0 -11
-31 -24 -39 -16 -3 3 1 10 9 15 19 12 30 12 30 1z m-20 -65 c0 -3 -4 -8 -10
-11 -5 -3 -10 -1 -10 4 0 6 5 11 10 11 6 0 10 -2 10 -4z m110 -226 c0 -5 -4
-10 -10 -10 -5 0 -10 5 -10 10 0 6 5 10 10 10 6 0 10 -4 10 -10z"/>
<path d="M1950 3149 c7 -11 14 -19 16 -16 7 7 -7 37 -17 37 -6 0 -5 -9 1 -21z"/>
<path d="M2240 3161 c0 -5 7 -11 14 -14 10 -4 13 -1 9 9 -6 15 -23 19 -23 5z"/>
<path d="M2495 3160 c3 -5 16 -10 28 -10 18 0 19 2 7 10 -20 13 -43 13 -35 0z"/>
<path d="M1723 3153 c9 -2 23 -2 30 0 6 3 -1 5 -18 5 -16 0 -22 -2 -12 -5z"/>
<path d="M1788 3133 c7 -3 16 -2 19 1 4 3 -2 6 -13 5 -11 0 -14 -3 -6 -6z"/>
<path d="M1825 3131 c-3 -6 2 -11 12 -12 10 0 29 -2 43 -4 14 -1 32 1 40 6 10
6 4 8 -22 9 -20 0 -43 3 -51 6 -8 3 -18 1 -22 -5z"/>
<path d="M2315 3130 c3 -5 8 -10 11 -10 2 0 4 5 4 10 0 6 -5 10 -11 10 -5 0
-7 -4 -4 -10z"/>
<path d="M2355 3130 c3 -5 18 -10 32 -10 32 0 28 5 -10 14 -19 4 -26 3 -22 -4z"/>
<path d="M1595 3120 c3 -5 8 -10 11 -10 2 0 4 5 4 10 0 6 -5 10 -11 10 -5 0
-7 -4 -4 -10z"/>
<path d="M2190 3120 c0 -5 5 -10 11 -10 5 0 7 5 4 10 -3 6 -8 10 -11 10 -2 0
-4 -4 -4 -10z"/>
<path d="M3415 3120 c3 -5 8 -10 11 -10 2 0 4 5 4 10 0 6 -5 10 -11 10 -5 0
-7 -4 -4 -10z"/>
<path d="M1626 3105 c-3 -9 0 -15 9 -15 8 0 15 7 15 15 0 8 -4 15 -9 15 -5 0
-11 -7 -15 -15z"/>
<path d="M3360 3110 c0 -5 4 -10 9 -10 6 0 13 5 16 10 3 6 -1 10 -9 10 -9 0
-16 -4 -16 -10z"/>
<path d="M2139 3100 c-11 -7 -10 -10 3 -15 24 -10 38 -2 23 12 -7 6 -18 8 -26
3z"/>
<path d="M3410 3080 c0 -11 4 -20 9 -20 5 0 7 9 4 20 -3 11 -7 20 -9 20 -2 0
-4 -9 -4 -20z"/>
<path d="M3439 3076 c4 -16 12 -31 19 -34 18 -6 14 13 -8 39 l-19 24 8 -29z"/>
<path d="M1938 3053 c7 -3 16 -2 19 1 4 3 -2 6 -13 5 -11 0 -14 -3 -6 -6z"/>
<path d="M3535 3000 c3 -5 8 -10 11 -10 2 0 4 5 4 10 0 6 -5 10 -11 10 -5 0
-7 -4 -4 -10z"/>
<path d="M8405 2940 c-3 -5 1 -10 9 -10 9 0 16 5 16 10 0 6 -4 10 -9 10 -6 0
-13 -4 -16 -10z"/>
<path d="M3518 2923 c7 -3 16 -2 19 1 4 3 -2 6 -13 5 -11 0 -14 -3 -6 -6z"/>
<path d="M3510 2896 c0 -3 4 -16 10 -30 12 -32 40 -35 39 -3 0 12 -3 16 -6 10
-5 -14 -24 -18 -22 -5 3 18 -2 32 -11 32 -5 0 -10 -2 -10 -4z"/>
<path d="M3613 2875 c-10 -10 -9 -16 2 -25 13 -10 15 -8 15 14 0 30 -1 30 -17
11z"/>
<path d="M3841 2747 c2 -1 13 -9 24 -17 19 -14 19 -14 6 3 -7 9 -18 17 -24 17
-6 0 -8 -1 -6 -3z"/>
<path d="M3600 2720 c0 -5 5 -10 10 -10 6 0 10 5 10 10 0 6 -4 10 -10 10 -5 0
-10 -4 -10 -10z"/>
<path d="M3900 2706 c0 -2 7 -9 15 -16 9 -7 15 -8 15 -2 0 5 -7 12 -15 16 -8
3 -15 4 -15 2z"/>
<path d="M3603 2663 c-15 -5 -17 -23 -4 -23 5 0 11 7 15 15 3 8 4 15 3 14 -1
0 -8 -3 -14 -6z"/>
<path d="M4000 2633 c0 -8 51 -35 56 -30 2 2 -10 11 -26 21 -17 9 -30 14 -30
9z"/>
<path d="M3640 2580 c0 -11 2 -20 4 -20 2 0 6 9 9 20 3 11 1 20 -4 20 -5 0 -9
-9 -9 -20z"/>
<path d="M4110 2560 c0 -5 5 -10 11 -10 5 0 7 5 4 10 -3 6 -8 10 -11 10 -2 0
-4 -4 -4 -10z"/>
<path d="M3688 2383 c6 -2 10 -9 6 -14 -3 -5 0 -9 5 -9 6 0 11 -8 10 -17 0
-11 -3 -13 -6 -5 -2 6 -9 10 -14 6 -16 -10 -10 -24 11 -24 23 0 41 31 22 38
-7 2 -12 10 -12 18 0 8 -8 14 -17 13 -11 0 -13 -3 -5 -6z"/>
<path d="M3775 2190 c-3 -5 -1 -10 4 -10 6 0 11 5 11 10 0 6 -2 10 -4 10 -3 0
-8 -4 -11 -10z"/>
<path d="M3780 2146 c0 -2 7 -6 15 -10 8 -3 15 -1 15 4 0 6 -7 10 -15 10 -8 0
-15 -2 -15 -4z"/>
<path d="M4028 2103 c7 -3 16 -2 19 1 4 3 -2 6 -13 5 -11 0 -14 -3 -6 -6z"/>
<path d="M5006 2082 c-16 -3 -14 -7 13 -18 18 -8 46 -14 62 -14 16 0 29 -4 29
-10 0 -5 7 -7 16 -3 10 4 20 0 26 -10 5 -10 21 -17 37 -17 16 0 42 -7 57 -15
16 -8 40 -15 53 -15 13 0 38 -9 55 -19 17 -10 65 -26 106 -36 41 -9 85 -23 98
-31 13 -8 51 -16 85 -18 34 -1 73 -9 86 -16 14 -7 57 -17 95 -22 85 -11 178
-24 266 -37 226 -34 512 -50 775 -45 202 4 235 8 235 25 0 5 -74 10 -172 11
-95 1 -193 2 -218 4 -164 7 -300 16 -362 24 -40 5 -113 14 -163 19 -136 16
-285 43 -285 52 0 4 -24 8 -52 8 -29 0 -75 5 -103 11 -27 5 -75 15 -105 21
-30 6 -59 14 -65 18 -5 5 -43 13 -83 20 -40 6 -80 16 -90 21 -9 5 -34 12 -54
15 -21 3 -41 11 -45 18 -13 19 -53 39 -53 26 0 -14 -72 -5 -131 16 -22 8 -46
12 -54 8 -9 -3 -21 -1 -28 4 -6 5 -21 7 -31 5z"/>
<path d="M3846 2057 c3 -10 9 -15 12 -12 3 3 0 11 -7 18 -10 9 -11 8 -5 -6z"/>
<path d="M3881 2044 c0 -11 3 -14 6 -6 3 7 2 16 -1 19 -3 4 -6 -2 -5 -13z"/>
<path d="M3824 2018 c-10 -16 55 -66 80 -61 17 4 18 3 6 -6 -8 -6 -13 -11 -10
-11 55 -8 90 -8 90 0 0 6 -6 10 -12 9 -29 -3 -48 2 -48 14 0 6 -12 17 -26 24
-21 10 -25 10 -20 -2 3 -9 0 -12 -10 -8 -7 3 -14 13 -14 23 0 21 -26 34 -36
18z"/>
<path d="M4010 1971 c0 -5 5 -13 10 -16 6 -3 10 -2 10 4 0 5 -4 13 -10 16 -5
3 -10 2 -10 -4z"/>
<path d="M3955 1906 c11 -8 24 -12 29 -8 5 3 1 9 -10 13 -31 12 -39 10 -19 -5z"/>
<path d="M4001 1904 c0 -11 3 -14 6 -6 3 7 2 16 -1 19 -3 4 -6 -2 -5 -13z"/>
<path d="M4120 1820 c0 -5 5 -10 10 -10 6 0 10 5 10 10 0 6 -4 10 -10 10 -5 0
-10 -4 -10 -10z"/>
<path d="M4173 1795 c0 -8 4 -12 8 -9 4 2 9 -1 11 -7 4 -12 78 -19 78 -6 0 4
-14 10 -30 14 -17 3 -33 10 -36 14 -9 14 -31 10 -31 -6z"/>
<path d="M7135 1780 c-4 -6 13 -10 44 -10 28 0 51 5 51 10 0 6 -20 10 -44 10
-25 0 -48 -4 -51 -10z"/>
<path d="M7250 1780 c0 -5 14 -7 33 -3 45 8 47 13 4 13 -20 0 -37 -4 -37 -10z"/>
<path d="M4307 1739 c7 -7 15 -10 18 -7 3 3 -2 9 -12 12 -14 6 -15 5 -6 -5z"/>
<path d="M4355 1740 c3 -5 11 -10 16 -10 6 0 7 5 4 10 -3 6 -11 10 -16 10 -6
0 -7 -4 -4 -10z"/>
<path d="M4350 1700 c8 -5 20 -10 25 -10 6 0 3 5 -5 10 -8 5 -19 10 -25 10 -5
0 -3 -5 5 -10z"/>
<path d="M4423 1685 c-10 -11 1 -18 60 -38 61 -20 75 -22 85 -11 11 12 6 14
-25 14 -39 1 -73 18 -73 39 0 6 -5 11 -11 11 -6 0 -9 -7 -5 -15 3 -8 1 -15 -4
-15 -5 0 -10 6 -12 14 -2 12 -5 12 -15 1z"/>
<path d="M4510 1670 c0 -5 5 -10 11 -10 5 0 7 5 4 10 -3 6 -8 10 -11 10 -2 0
-4 -4 -4 -10z"/>
<path d="M4767 1649 c8 -8 16 -8 30 0 16 9 14 10 -11 11 -22 0 -27 -3 -19 -11z"/>
<path d="M4590 1631 c0 -10 24 -22 54 -28 15 -3 17 -1 7 11 -7 8 -19 12 -27 9
-8 -3 -14 0 -14 6 0 6 -4 11 -10 11 -5 0 -10 -4 -10 -9z"/>
<path d="M4740 1571 c0 -4 38 -16 85 -28 59 -14 85 -17 85 -9 0 7 -15 13 -32
14 -18 2 -57 9 -85 16 -29 8 -53 11 -53 7z"/>
<path d="M7740 1550 c-9 -6 -10 -10 -3 -10 6 0 15 5 18 10 8 12 4 12 -15 0z"/>
<path d="M4920 1531 c0 -22 376 -89 645 -115 220 -22 497 -36 679 -34 l161 1
-130 7 c-71 4 -215 11 -320 15 -251 10 -245 10 -283 19 -19 4 -61 9 -95 11
-163 9 -266 22 -283 35 -5 5 -20 7 -33 3 -17 -4 -23 -1 -28 16 -5 22 -23 29
-23 10 0 -7 -14 -9 -37 -5 -21 3 -67 8 -103 11 -35 3 -72 12 -80 20 -18 16
-70 20 -70 6z"/>
<path d="M7275 1470 c-19 -8 -19 -9 2 -9 12 -1 25 4 28 9 7 12 -2 12 -30 0z"/>
<path d="M7338 1473 c6 -2 18 -2 25 0 6 3 1 5 -13 5 -14 0 -19 -2 -12 -5z"/>
<path d="M6913 1423 c15 -2 39 -2 55 0 15 2 2 4 -28 4 -30 0 -43 -2 -27 -4z"/>
<path d="M6858 1413 c7 -3 16 -2 19 1 4 3 -2 6 -13 5 -11 0 -14 -3 -6 -6z"/>
<path d="M6703 1403 c15 -2 37 -2 50 0 12 2 0 4 -28 4 -27 0 -38 -2 -22 -4z"/>
<path d="M6473 1393 c26 -2 67 -2 90 0 23 2 2 3 -48 3 -49 0 -68 -1 -42 -3z"/>
</g>
</svg>
